<svg id="SvgjsSvg1062" width="256" height="256" xmlns="http://www.w3.org/2000/svg" version="1.1" xmlns:xlink="http://www.w3.org/1999/xlink" xmlns:svgjs="http://svgjs.com/svgjs"><defs id="SvgjsDefs1063"></defs><g id="SvgjsG1064"><svg xmlns="http://www.w3.org/2000/svg" enable-background="new 0 0 512 512" viewBox="0 0 512 512" width="256" height="256"><path fill="#d84200" d="M50.37,92.54l54.1,353.11c1.47,9.58,9.71,16.66,19.4,16.66h276.25c9.7,0,17.94-7.08,19.41-16.66l54.09-353.11H50.37z" class="colord84200 svgShape"></path><path fill="#f3e8d7" d="M284.54 462.31h-45.08l-7.79-367.38h60.67L284.54 462.31zM194.39 462.31h-45.08L110.32 94.93h60.67L194.39 462.31zM374.69 462.31h-45.07l23.39-367.38h60.67L374.69 462.31z" class="colorf3e8d7 svgShape"></path><linearGradient id="a" x1="24" x2="500" y1="110.186" y2="110.186" gradientUnits="userSpaceOnUse"><stop offset="0" stop-color="#e84d00" class="stopColore84d00 svgShape"></stop><stop offset=".363" stop-color="#d43917" class="stopColord43917 svgShape"></stop><stop offset=".721" stop-color="#c62c27" class="stopColorc62c27 svgShape"></stop><stop offset="1" stop-color="#c1272d" class="stopColorc1272d svgShape"></stop></linearGradient><path fill="url(#a)" d="M477.1,133.08H46.9c-12.64,0-22.9-10.25-22.9-22.9c0-12.65,10.25-22.9,22.9-22.9h430.2c12.65,0,22.9,10.25,22.9,22.9C500,122.83,489.75,133.08,477.1,133.08z"></path><linearGradient id="b" x1="152.357" x2="371.648" y1="282.994" y2="282.994" gradientUnits="userSpaceOnUse"><stop offset="0" stop-color="#e84d00" class="stopColore84d00 svgShape"></stop><stop offset=".363" stop-color="#d43917" class="stopColord43917 svgShape"></stop><stop offset=".721" stop-color="#c62c27" class="stopColorc62c27 svgShape"></stop><stop offset="1" stop-color="#c1272d" class="stopColorc1272d svgShape"></stop></linearGradient><path fill="url(#b)" d="M371.65,282.99c0,60.56-49.09,109.65-109.65,109.65c-60.56,0-109.65-49.09-109.65-109.65c0-60.55,49.09-109.65,109.65-109.65C322.55,173.35,371.65,222.44,371.65,282.99z"></path><path fill="#ffffff" d="M335.73,226.25c-3.22-3.22-7.7-4.41-11.86-3.57c0.84-4.15-0.35-8.64-3.57-11.86c-5.11-5.11-13.41-5.11-18.52,0c-5.11,5.11-5.11,13.41,0,18.52c0.45,0.45,0.94,0.86,1.44,1.24l-34.67,34.67l12.76,12.76l34.67-34.67c0.37,0.5,0.78,0.98,1.24,1.44c5.11,5.11,13.41,5.11,18.52,0C340.84,239.66,340.84,231.37,335.73,226.25z" class="colorfff svgShape"></path><path fill="#ff9100" d="M210.46,279.3c15.68-15.68,59.85-34.42,75.53-18.74c15.68,15.68-3.05,59.85-18.74,75.53c-15.68,15.68-41.11,15.69-56.79,0C194.78,320.41,194.78,294.99,210.46,279.3z" class="colorff9100 svgShape"></path></svg></g></svg>