<svg id="SvgjsSvg1016" width="256" height="256" xmlns="http://www.w3.org/2000/svg" version="1.1" xmlns:xlink="http://www.w3.org/1999/xlink" xmlns:svgjs="http://svgjs.com/svgjs"><defs id="SvgjsDefs1017"></defs><g id="SvgjsG1018"><svg xmlns="http://www.w3.org/2000/svg" viewBox="0 0 128 128" width="256" height="256"><path fill="#e0e0e0" d="M55.8 35.4 60.7 23h54l6.2 12.4" class="colore0e0e0 svgShape"></path><path fill="#de2a1b" d="M109.9 119H65.2l-11-83h66.7z" class="colorde2a1b svgShape"></path><path fill="none" stroke="#31352e" stroke-linecap="round" stroke-miterlimit="10" stroke-width="6" d="M50 36h75" class="colorStroke31352e svgStroke"></path><path fill="none" stroke="#31352e" stroke-linecap="round" stroke-linejoin="round" stroke-miterlimit="10" stroke-width="6" d="m91.2 23 1.6-15.2L106 4" class="colorStroke31352e svgStroke"></path><path fill="#c92017" d="M54.8 36v5.7h56l-6.3 77.3h5.5l10.9-83z" class="colorc92017 svgShape"></path><path fill="#ffffff" d="M61 23h10l-5 12H56z" class="colorfff svgShape"></path><path fill="#ef271d" d="m64.1 36 6.1 74.9 23.3 8.1H65.4L54.5 36z" class="coloref271d svgShape"></path><path fill="none" stroke="#31352e" stroke-linecap="round" stroke-linejoin="round" stroke-miterlimit="10" stroke-width="6" d="M55.8 35.4 60.7 23h54l6.2 12.4" class="colorStroke31352e svgStroke"></path><path fill="none" stroke="#31352e" stroke-miterlimit="10" stroke-width="6" d="M109.9 119H65.2l-11-83h66.7z" class="colorStroke31352e svgStroke"></path><ellipse cx="87" cy="67.3" fill="#fefefe" rx="13.1" ry="16.3" class="colorfefefe svgShape"></ellipse><path fill="#31352e" d="M83.3 89.2C82 90.7 80 91.7 78 91.8v5.7c3 1.2 4.2 3.7 4.2 6.7 0 2.3-1.2 4.5-2.2 5.8v7H64.9l-7.7-58.6C71.6 62 82.5 71.5 84.9 83.6c.4 2-.3 4-1.6 5.6z" opacity=".2" class="color31352e svgShape"></path><path fill="#18b22a" d="M71.8 100c2 0 3.6 1.9 3.6 4.3 0 2-1.1 3.7-2.7 4.2-1.8.5-2.5 1.5-3.3 2.4-.9 1-1.9 1.9-4.7 1.9-6.2 0-6.2-4.7-12.4-4.7s-6.2 4.7-12.4 4.7-6.2-4.7-12.4-4.7-6.2 4.7-12.4 4.7c-2.6 0-3.7-.9-4.5-1.8-.8-.9-1.5-2-3.3-2.5-1.6-.5-2.7-2.1-2.7-4.1 0-1.2 2.6-4.3 3.6-4.3h63.6z" class="color18b22a svgShape"></path><path fill="#ffa617" d="M72.8 110.2v6.4c0 4.6-3.6 8.4-8.3 8.4H17.2c-4.6 0-8.2-3.8-8.2-8.4v-6.4h63.8z" class="colorffa617 svgShape"></path><path fill="#ff8b00" d="M21.5 118.7v-8.5H9v6.4c0 4.6 3.6 8.4 8.2 8.4h12.5c-4.6 0-8.2-1.9-8.2-6.3z" class="colorff8b00 svgShape"></path><path fill="none" stroke="#31352e" stroke-miterlimit="10" stroke-width="6" d="M73 110v6.6c0 4.6-3.9 8.4-8.5 8.4H17.2c-4.6 0-8.2-3.8-8.2-8.4V110" class="colorStroke31352e svgStroke"></path><path fill="#ffa617" d="M78.2 84.2c.5 2.4-1.5 4.6-4.1 4.6H7.7c-2.6 0-4.6-2.2-4.1-4.6C6.4 70.1 22 59.8 40.9 59.8s34.4 10.3 37.3 24.4z" class="colorffa617 svgShape"></path><path fill="#e23030" d="M9 89h62v11H9z" class="colore23030 svgShape"></path><path fill="#ff8b00" d="M24.5 80.3c-2.7-10 4.1-18.7 20.9-20.2-1.5-.1-3-.2-4.5-.2C22 59.8 6.4 70.1 3.6 84.2c-.5 2.4 1.5 4.6 4.1 4.6h29.8c-2.6 0-11.1-1.5-13-8.5z" class="colorff8b00 svgShape"></path><path fill="none" stroke="#31352e" stroke-miterlimit="10" stroke-width="6" d="M74.1 89c2.6 0 4.6-2.3 4.1-4.7-2.8-14.1-19.1-24.5-37.9-24.5S6.4 70.3 3.6 84.4C3.1 86.7 5.1 89 7.7 89h66.4zm-2.6 11h.3c2 0 3.6 1.9 3.6 4.3 0 2-1.1 3.7-2.7 4.2-1.8.5-2.5 1.5-3.3 2.4-.9 1-1.9 1.9-4.7 1.9-6.2 0-6.2-4.7-12.4-4.7s-6.2 4.7-12.4 4.7-6.2-4.7-12.4-4.7-6.2 4.7-12.4 4.7c-2.6 0-3.7-.9-4.5-1.8-.8-.9-1.5-2-3.3-2.5-1.6-.5-2.7-2.2-2.7-4.2 0-1.2.4-2.2 1-3S7.1 100 8 100h63.5zM9 89v9M71 89v9" class="colorStroke31352e svgStroke"></path><ellipse cx="20.1" cy="74.1" fill="#ffffff" rx="2" ry="1.1" transform="rotate(26.849 20.067 74.061)" class="colorfff svgShape"></ellipse><ellipse cx="25.9" cy="67.8" fill="#ffffff" rx="2.1" ry="1.2" transform="rotate(-36.493 25.893 67.821)" class="colorfff svgShape"></ellipse><ellipse cx="32.7" cy="75.1" fill="#ffffff" rx="2.6" ry="1.5" transform="rotate(66.139 32.662 75.058)" class="colorfff svgShape"></ellipse><ellipse cx="44.5" cy="75.3" fill="#ffffff" rx="2.4" ry="1.4" transform="rotate(138.198 44.543 75.34)" class="colorfff svgShape"></ellipse><ellipse cx="50.6" cy="67.5" fill="#ffffff" rx="2" ry="1.1" transform="rotate(137.706 50.566 67.548)" class="colorfff svgShape"></ellipse><ellipse cx="58.4" cy="73.1" fill="#ffffff" rx="2.3" ry="1.3" transform="rotate(89.258 58.363 73.057) scale(.99998)" class="colorfff svgShape"></ellipse><ellipse cx="39" cy="67.9" fill="#ffffff" rx="2.3" ry="1.3" transform="rotate(54.823 39.035 67.903)" class="colorfff svgShape"></ellipse></svg></g></svg>