<svg id="SvgjsSvg1183" width="256" height="256" xmlns="http://www.w3.org/2000/svg" version="1.1" xmlns:xlink="http://www.w3.org/1999/xlink" xmlns:svgjs="http://svgjs.com/svgjs"><defs id="SvgjsDefs1184"></defs><g id="SvgjsG1185"><svg xmlns="http://www.w3.org/2000/svg" viewBox="0 0 150 150" width="256" height="256"><path fill="#f9c24b" d="m36.855 30.03 4.758 43.542h8.406L46.45 30.03z" class="colorf9c24b svgShape"></path><path fill="#2a414e" d="m46.45 30.029 3.569 43.543h-4.203l-4.163-43.543z" opacity=".1" class="color2a414e svgShape"></path><path fill="#314d5c" d="M51.104 74.572H40.716L35.74 29.03h11.632l3.732 45.542zm-8.595-2h6.424L45.53 31.03H37.97l4.54 41.542z" class="color314d5c svgShape"></path><path fill="#f9c24b" d="m47.275 40.088 3.379 41.231h8.194l-2.253-41.231z" class="colorf9c24b svgShape"></path><path fill="#2a414e" d="m56.596 40.087 2.252 41.232h-4.097l-2.816-41.232z" opacity=".1" class="color2a414e svgShape"></path><path fill="#314d5c" d="M59.904 82.319H49.732L46.19 39.088h11.353l2.362 43.23zm-8.329-2h6.217l-2.144-39.231H48.36l3.215 39.23z" class="color314d5c svgShape"></path><path fill="#f9c24b" d="m56.046 30.03 2.379 43.542h8.406L65.642 30.03z" class="colorf9c24b svgShape"></path><path fill="#2a414e" d="m65.642 30.029 1.189 43.543h-4.203l-1.784-43.543z" opacity=".1" class="color2a414e svgShape"></path><path fill="#314d5c" d="M67.859 74.572H57.478L54.99 29.03h11.625l1.244 45.542zm-8.487-2h6.431L64.668 31.03h-7.566l2.27 41.542z" class="color314d5c svgShape"></path><path fill="#f9c24b" d="m65.917 40.088 1.126 41.231h8.194V40.088z" class="colorf9c24b svgShape"></path><path fill="#2a414e" d="M75.237 40.087v41.232H71.14l-.563-41.232z" opacity=".1" class="color2a414e svgShape"></path><path fill="#314d5c" d="M76.237 82.319H66.07l-1.181-43.231h11.348v43.23zm-8.22-2h6.22V41.088h-7.293l1.072 39.23z" class="color314d5c svgShape"></path><path fill="#f9c24b" d="M75.237 30.03v43.542h8.406l1.19-43.542z" class="colorf9c24b svgShape"></path><path fill="#2a414e" d="m84.833 30.029-1.19 43.543H79.44l.595-43.543z" opacity=".1" class="color2a414e svgShape"></path><path fill="#314d5c" d="M84.616 74.572H74.237V29.03H85.86l-1.244 45.542zm-8.379-2h6.433l1.135-41.542h-7.568v41.542z" class="color314d5c svgShape"></path><path fill="#f9c24b" d="m84.558 40.088-1.126 41.231h8.194l2.253-41.231z" class="colorf9c24b svgShape"></path><path fill="#2a414e" d="m93.879 40.087-2.253 41.232h-4.097l1.69-41.232z" opacity=".1" class="color2a414e svgShape"></path><path fill="#314d5c" d="M92.573 82.319h-10.17l1.182-43.231h11.35l-2.362 43.23zm-8.114-2h6.22l2.144-39.231H85.53l-1.072 39.23z" class="color314d5c svgShape"></path><path fill="#f9c24b" d="M94.428 30.03 92.05 73.572h8.406l3.568-43.542z" class="colorf9c24b svgShape"></path><path fill="#2a414e" d="m104.024 30.029-3.568 43.543h-4.203l2.973-43.543z" opacity=".1" class="color2a414e svgShape"></path><path fill="#314d5c" d="M101.377 74.572H90.994l2.488-45.542h11.627l-3.732 45.542zm-8.271-2h6.428l3.404-41.542h-7.563l-2.269 41.542z" class="color314d5c svgShape"></path><path fill="#f9c24b" d="m103.2 40.088-3.379 41.231h8.194l4.506-41.231z" class="colorf9c24b svgShape"></path><path fill="#2a414e" d="m112.521 40.087-4.505 41.232h-4.098l3.943-41.232z" opacity=".1" class="color2a414e svgShape"></path><path fill="#314d5c" d="M108.912 82.319H98.735l3.543-43.231h11.358l-4.724 43.23zm-8.006-2h6.213l4.286-39.231h-7.284l-3.215 39.23z" class="color314d5c svgShape"></path><path fill="#e54a5c" d="m113.086 53.938-10.08 62.498a4.204 4.204 0 0 1-4.15 3.534H51.65a4.204 4.204 0 0 1-4.15-3.534L37.42 53.938h9.528s5.262 8.087 28.305 8.087 28.305-8.087 28.305-8.087h9.528z" class="colore54a5c svgShape"></path><path fill="#e54a5c" d="m113.085 53.937-10.082 62.497a4.204 4.204 0 0 1-4.15 3.535H51.65a4.204 4.204 0 0 1-4.15-3.535L37.419 53.937h9.525s.294.454 1.06 1.152c1.588 1.455 5.22 3.96 12.442 5.54 3.842.833 8.702 1.396 14.806 1.396 6.103 0 10.963-.563 14.805-1.395 7.222-1.58 10.854-4.086 12.443-5.54.765-.699 1.06-1.153 1.06-1.153h9.525z" class="colore54a5c svgShape"></path><path fill="#263a46" d="m102.5 55.09-9.938 64.879H57.941l-9.938-64.88c1.59 1.455 5.221 3.96 12.443 5.54 3.842.833 8.702 1.396 14.806 1.396 6.103 0 10.963-.563 14.805-1.395 7.222-1.58 10.854-4.086 12.443-5.54z" opacity=".15" class="color263a46 svgShape"></path><path fill="#ffffff" d="m90.057 60.63-6.407 59.339H66.853l-6.407-59.34c3.842.833 8.702 1.396 14.806 1.396 6.103 0 10.963-.563 14.805-1.395z" opacity=".1" class="colorfff svgShape"></path><g fill="#ffffff" opacity=".4" class="colorfff svgShape"><path d="m67.998 89.223 2.098-.12.818 14.321-2.098.12z" opacity=".7" fill="#000000" class="color000 svgShape"></path><path d="m45.69 87.88 2.068-.375 2.559 14.114-2.069.375z" opacity=".5" fill="#000000" class="color000 svgShape"></path><path d="m69.18 109.923 2.099-.12.577 10.106-2.099.12z" opacity=".7" fill="#000000" class="color000 svgShape"></path></g><path fill="#314d5c" d="M98.855 120.97H51.65a5.182 5.182 0 0 1-5.137-4.375L36.246 52.938H47.49l.296.454c.047.069 5.417 7.633 27.467 7.633s27.42-7.564 27.472-7.64l.297-.44.536-.008h10.702l-10.267 63.658a5.183 5.183 0 0 1-5.138 4.375zm-60.26-66.032 9.893 61.339a3.19 3.19 0 0 0 3.162 2.693h47.205a3.19 3.19 0 0 0 3.163-2.693l9.894-61.34h-7.866c-1.521 1.785-8.342 8.088-28.793 8.088S47.98 56.722 46.46 54.938h-7.866z" class="color314d5c svgShape"></path><path fill="#f9c24b" d="m109.772 74.468-1.354 8.407H42.085l-1.354-8.407z" class="colorf9c24b svgShape"></path><path fill="#314d5c" d="M109.27 83.875H41.233l-1.675-10.407h71.389l-1.675 10.407zm-66.333-2h64.63l1.031-6.407H41.905l1.032 6.407z" class="color314d5c svgShape"></path></svg></g></svg>