<svg id="SvgjsSvg5372"  viewBox="0 0 550 510" xmlns="http://www.w3.org/2000/svg" version="1.1" xmlns:xlink="http://www.w3.org/1999/xlink" xmlns:svgjs="http://svgjs.com/svgjs"><defs id="SvgjsDefs5373"></defs><g id="SvgjsG5374"><svg xmlns="http://www.w3.org/2000/svg" xmlns:xlink="http://www.w3.org/1999/xlink" viewBox="0 0 1000 750" width="550" height="550"><defs><linearGradient id="a" x1="394.56" x2="451.77" y1="1407.8" y2="1291.48" gradientTransform="rotate(22.45 2519.75 1401.357)" gradientUnits="userSpaceOnUse"><stop offset="0" stop-color="#bf2025" class="stopColorbf2025 svgShape"></stop><stop offset="1" stop-color="#f15858" class="stopColorf15858 svgShape"></stop></linearGradient><linearGradient id="j" x1="392.49" x2="437" y1="1409.4" y2="1318.89" xlink:href="#a"></linearGradient><linearGradient id="b" x1="792.37" x2="780.78" y1="465.95" y2="577.5" gradientTransform="translate(-305.51 122.97)" gradientUnits="userSpaceOnUse"><stop offset="0" stop-color="#fdcea3" class="stopColorfdcea3 svgShape"></stop><stop offset="1" stop-color="#a24223" class="stopColora24223 svgShape"></stop></linearGradient><linearGradient id="l" x1="792.37" x2="780.79" y1="465.95" y2="577.5" xlink:href="#b"></linearGradient><linearGradient id="m" x1="792.24" x2="787.88" y1="466.62" y2="508.66" xlink:href="#b"></linearGradient><linearGradient id="n" x1="729.11" x2="720.52" y1="482.49" y2="565.27" xlink:href="#b"></linearGradient><linearGradient id="o" x1="729.12" x2="720.48" y1="482.48" y2="565.69" xlink:href="#b"></linearGradient><linearGradient id="p" x1="729.02" x2="725.77" y1="482.98" y2="514.3" xlink:href="#b"></linearGradient><linearGradient id="q" x1="804.12" x2="795.53" y1="410.43" y2="493.21" xlink:href="#b"></linearGradient><linearGradient id="r" x1="804.13" x2="795.49" y1="410.42" y2="493.63" xlink:href="#b"></linearGradient><linearGradient id="s" x1="804.03" x2="800.78" y1="410.92" y2="442.24" xlink:href="#b"></linearGradient><linearGradient id="t" x1="674.27" x2="665.68" y1="479.41" y2="562.19" xlink:href="#b"></linearGradient><linearGradient id="u" x1="674.28" x2="665.64" y1="479.4" y2="562.62" xlink:href="#b"></linearGradient><linearGradient id="v" x1="674.18" x2="670.93" y1="479.9" y2="511.22" xlink:href="#b"></linearGradient><linearGradient id="w" x1="709.75" x2="704.4" y1="446.91" y2="498.44" xlink:href="#b"></linearGradient><linearGradient id="x" x1="709.76" x2="704.38" y1="446.9" y2="498.7" xlink:href="#b"></linearGradient><linearGradient id="y" x1="709.7" x2="707.67" y1="447.22" y2="466.71" xlink:href="#b"></linearGradient><linearGradient id="z" x1="743.45" x2="738.1" y1="448.97" y2="500.5" xlink:href="#b"></linearGradient><linearGradient id="A" x1="743.45" x2="738.07" y1="448.96" y2="500.76" xlink:href="#b"></linearGradient><linearGradient id="B" x1="743.39" x2="741.37" y1="449.28" y2="468.77" xlink:href="#b"></linearGradient><linearGradient id="C" x1="728.51" x2="724.59" y1="421.68" y2="459.44" xlink:href="#b"></linearGradient><linearGradient id="D" x1="728.51" x2="724.57" y1="421.67" y2="459.63" xlink:href="#b"></linearGradient><linearGradient id="E" x1="728.47" x2="726.98" y1="421.9" y2="436.19" xlink:href="#b"></linearGradient><linearGradient id="F" x1="794.24" x2="790.32" y1="385.05" y2="422.82" xlink:href="#b"></linearGradient><linearGradient id="G" x1="794.24" x2="790.3" y1="385.05" y2="423.01" xlink:href="#b"></linearGradient><linearGradient id="H" x1="794.2" x2="792.72" y1="385.28" y2="399.57" xlink:href="#b"></linearGradient><linearGradient id="i" x1="670.62" x2="714.73" y1="254.24" y2="355.23" gradientUnits="userSpaceOnUse"><stop offset="0" stop-color="#c2728d" class="stopColorc2728d svgShape"></stop><stop offset="1" stop-color="#0e496e" class="stopColor0e496e svgShape"></stop></linearGradient><linearGradient id="c" x1="-2476.19" x2="-2477.48" y1="567.13" y2="585.73" gradientTransform="rotate(-4.27 143.778 -41453.83)" gradientUnits="userSpaceOnUse"><stop offset="0" stop-color="#e6659d" class="stopColore6659d svgShape"></stop><stop offset="1" stop-color="#613e98" class="stopColor613e98 svgShape"></stop></linearGradient><linearGradient id="d" x1="4576.78" x2="4572.69" y1="740.09" y2="754.39" gradientTransform="matrix(-1 .03 .03 1 5217.97 -218.69)" gradientUnits="userSpaceOnUse"><stop offset="0" stop-color="#ef877e" class="stopColoref877e svgShape"></stop><stop offset="1" stop-color="#fabeb2" class="stopColorfabeb2 svgShape"></stop></linearGradient><linearGradient id="I" x1="-2468.78" x2="-2452.53" y1="392.05" y2="575.33" xlink:href="#c"></linearGradient><linearGradient id="J" x1="-2477.78" x2="-2444.18" y1="420.3" y2="420.3" xlink:href="#c"></linearGradient><linearGradient id="K" x1="-2557.87" x2="-2600.57" y1="732.68" y2="723.33" gradientTransform="rotate(1.61 11224.368 113535.991)" xlink:href="#d"></linearGradient><linearGradient id="L" x1="5839.29" x2="5840.33" y1="813.16" y2="833.3" gradientTransform="matrix(-1 -.06 -.06 1 6559.09 -121.49)" xlink:href="#d"></linearGradient><linearGradient id="M" x1="5763.1" x2="5767.97" y1="1930.09" y2="1975.36" gradientTransform="matrix(-.94 -.17 -.18 .84 6462.8 -369.06)" xlink:href="#d"></linearGradient><linearGradient id="N" x1="-1069.41" x2="-1070.84" y1="-1834.6" y2="-1814.08" gradientTransform="rotate(-43.1 2982.796 -2862.522)" xlink:href="#c"></linearGradient><linearGradient id="O" x1="4203.71" x2="4199.48" y1="-415.43" y2="-400.63" gradientTransform="matrix(-.95 .31 .31 .95 4850.25 -272.1)" xlink:href="#d"></linearGradient><linearGradient id="P" x1="-2271.7" x2="-2255.37" y1="-209.85" y2="-25.7" gradientTransform="matrix(.98 -.22 .22 .98 2944.13 168.82)" xlink:href="#c"></linearGradient><linearGradient id="e" x1="-2496.54" x2="-2607.24" y1="864.42" y2="877.8" gradientTransform="translate(3231.2 -330.44)" gradientUnits="userSpaceOnUse"><stop offset="0" stop-color="#f78d1e" class="stopColorf78d1e svgShape"></stop><stop offset="1" stop-color="#fec246" class="stopColorfec246 svgShape"></stop></linearGradient><linearGradient id="Q" x1="3010.41" x2="3001.67" y1="366.2" y2="267.08" gradientTransform="matrix(-1 .07 .07 1 3651.44 -146.88)" xlink:href="#e"></linearGradient><linearGradient id="R" x1="-2525.25" x2="-2525.31" y1="881.85" y2="881.47" gradientTransform="translate(3231.2 -330.44)" gradientUnits="userSpaceOnUse"><stop offset="0" stop-color="#e55e25" class="stopColore55e25 svgShape"></stop><stop offset="1" stop-color="#f9a349" class="stopColorf9a349 svgShape"></stop></linearGradient><linearGradient id="S" x1="-2543.89" x2="-2544.08" y1="866.63" y2="867.14" gradientTransform="translate(3231.2 -330.44)" gradientUnits="userSpaceOnUse"><stop offset="0" stop-color="#42c1c5" class="stopColor42c1c5 svgShape"></stop><stop offset="1" stop-color="#0898d0" class="stopColor0898d0 svgShape"></stop></linearGradient><linearGradient id="T" x1="3012.75" x2="3003.44" y1="394.84" y2="289.27" gradientTransform="matrix(-1 .07 .07 1 3651.44 -146.88)" xlink:href="#e"></linearGradient><linearGradient id="U" x1="481.69" x2="580.01" y1="278.99" y2="285.47" gradientTransform="matrix(.99 -.11 .11 .99 -61.68 157.15)" xlink:href="#d"></linearGradient><linearGradient id="V" x1="481.92" x2="580.25" y1="275.46" y2="281.94" gradientTransform="matrix(.99 -.11 .11 .99 -61.68 157.15)" xlink:href="#d"></linearGradient><linearGradient id="W" x1="482.14" x2="580.46" y1="272.22" y2="278.7" gradientTransform="matrix(.99 -.11 .11 .99 -61.68 157.15)" xlink:href="#d"></linearGradient><linearGradient id="X" x1="482.36" x2="580.68" y1="268.8" y2="275.29" gradientTransform="matrix(.99 -.11 .11 .99 -61.68 157.15)" xlink:href="#d"></linearGradient><linearGradient id="Y" x1="482.91" x2="580.67" y1="271.41" y2="277.85" gradientTransform="matrix(.99 -.11 .11 .99 -61.68 157.15)" xlink:href="#d"></linearGradient><linearGradient id="Z" x1="465.12" x2="491.36" y1="366.94" y2="351.88" xlink:href="#a"></linearGradient><linearGradient id="aa" x1="508.85" x2="584.7" y1="282.5" y2="287.5" gradientTransform="matrix(.99 -.11 .11 .99 -61.68 157.15)" xlink:href="#d"></linearGradient><linearGradient id="ab" x1="481.83" x2="580.16" y1="276.67" y2="283.16" gradientTransform="matrix(.99 -.11 .11 .99 -61.68 157.15)" xlink:href="#d"></linearGradient><linearGradient id="f" x1="459.89" x2="465.48" y1="257.52" y2="526.2" gradientUnits="userSpaceOnUse"><stop offset="0" stop-color="#5a250d" class="stopColor5a250d svgShape"></stop><stop offset="1" stop-color="#93391f" class="stopColor93391f svgShape"></stop></linearGradient><linearGradient id="ac" x1="440.9" x2="442.03" y1="416.22" y2="470.43" xlink:href="#f"></linearGradient><linearGradient id="g" x1="567.2" x2="567.66" y1="637.92" y2="661.74" gradientTransform="rotate(.37 -2058.726 -10291.18)" gradientUnits="userSpaceOnUse"><stop offset="0" stop-color="#2a180d" class="stopColor2a180d svgShape"></stop><stop offset="1" stop-color="#772d16" class="stopColor772d16 svgShape"></stop></linearGradient><linearGradient id="ad" x1="1431.33" x2="1431.79" y1="940.12" y2="963.94" gradientTransform="rotate(44.03 1292.95 -581.496)" xlink:href="#g"></linearGradient><linearGradient id="ae" x1="385.63" x2="390.53" y1="255.87" y2="490.76" xlink:href="#f"></linearGradient><linearGradient id="af" x1="5172.83" x2="5173.9" y1="501.68" y2="522.4" gradientTransform="rotate(14.89 3516.248 -17583.592)" xlink:href="#d"></linearGradient><linearGradient id="ag" x1="5363.03" x2="5368.21" y1="837.63" y2="885.83" gradientTransform="matrix(.95 .09 -.05 .86 -4585.08 -934.44)" xlink:href="#d"></linearGradient><linearGradient id="ah" x1="428.19" x2="461.64" y1="444.06" y2="354.12" xlink:href="#a"></linearGradient><linearGradient id="ai" x1="-2170.55" x2="-2149.04" y1="544.94" y2="667.4" gradientTransform="scale(-1 1) rotate(-15 -1974.24 -5925.577)" xlink:href="#a"></linearGradient><linearGradient id="h" x1="5345.52" x2="5362.87" y1="309.45" y2="264.81" gradientTransform="rotate(7 2762.594 -40219.486)" gradientUnits="userSpaceOnUse"><stop offset="0" stop-color="#5a1f0d" class="stopColor5a1f0d svgShape"></stop><stop offset="1" stop-color="#b84726" class="stopColorb84726 svgShape"></stop></linearGradient><linearGradient id="aj" x1="5371.71" x2="5372.14" y1="302.24" y2="292.85" xlink:href="#h"></linearGradient><linearGradient id="ak" x1="732.96" x2="781.41" y1="484" y2="442.81" gradientTransform="rotate(14.89 1306.373 -662.882)" xlink:href="#a"></linearGradient><linearGradient id="al" x1="-2153.05" x2="-2131.95" y1="541.96" y2="662.07" gradientTransform="scale(-1 1) rotate(-15 -1974.24 -5925.577)" xlink:href="#a"></linearGradient><linearGradient id="am" x1="-2159.74" x2="-2138.65" y1="543.46" y2="663.57" gradientTransform="scale(-1 1) rotate(-15 -1974.24 -5925.577)" xlink:href="#a"></linearGradient><linearGradient id="an" x1="-2166.69" x2="-2145.6" y1="545.01" y2="665.12" gradientTransform="scale(-1 1) rotate(-15 -1974.24 -5925.577)" xlink:href="#a"></linearGradient><linearGradient id="ao" x1="-2172.13" x2="-2151.04" y1="546.31" y2="666.42" gradientTransform="scale(-1 1) rotate(-15 -1974.24 -5925.577)" xlink:href="#a"></linearGradient><linearGradient id="ap" x1="737.48" x2="722.89" y1="411.9" y2="552.41" gradientTransform="rotate(8.05 1275.768 -686.54)" xlink:href="#b"></linearGradient><linearGradient id="aq" x1="737.49" x2="722.9" y1="411.9" y2="552.41" gradientTransform="rotate(8.05 1275.768 -686.54)" xlink:href="#b"></linearGradient><linearGradient id="ar" x1="737.33" x2="731.83" y1="412.74" y2="465.7" gradientTransform="rotate(8.05 1275.768 -686.54)" xlink:href="#b"></linearGradient><linearGradient id="as" x1="746.14" x2="747.01" y1="534.05" y2="501.08" gradientTransform="rotate(14.89 1306.373 -662.882)" xlink:href="#a"></linearGradient><linearGradient id="at" x1="758.5" x2="759.36" y1="534.36" y2="501.42" gradientTransform="rotate(14.89 1306.373 -662.882)" xlink:href="#a"></linearGradient><linearGradient id="au" x1="433.83" x2="484.68" y1="425.88" y2="304.44" xlink:href="#a"></linearGradient><linearGradient id="av" x1="487.56" x2="487.64" y1="410.26" y2="410.22" xlink:href="#a"></linearGradient><linearGradient id="aw" x1="457.8" x2="458.26" y1="362.47" y2="361.23" xlink:href="#a"></linearGradient><linearGradient id="ax" x1="469.19" x2="473.6" y1="382.64" y2="370.78" xlink:href="#a"></linearGradient><linearGradient id="ay" x1="425.8" x2="536.78" y1="392.77" y2="400.09" xlink:href="#d"></linearGradient><linearGradient id="az" x1="426.06" x2="537.04" y1="388.79" y2="396.11" xlink:href="#d"></linearGradient><linearGradient id="aA" x1="426.3" x2="537.28" y1="385.13" y2="392.45" xlink:href="#d"></linearGradient><linearGradient id="aB" x1="426.55" x2="537.54" y1="381.28" y2="388.6" xlink:href="#d"></linearGradient><linearGradient id="aC" x1="427.17" x2="537.52" y1="384.22" y2="391.5" xlink:href="#d"></linearGradient><linearGradient id="aD" x1="413.06" x2="461.05" y1="435.86" y2="367.72" xlink:href="#a"></linearGradient><linearGradient id="aE" x1="456.45" x2="542.06" y1="396.73" y2="402.38" xlink:href="#d"></linearGradient><linearGradient id="aF" x1="425.97" x2="536.95" y1="390.16" y2="397.48" xlink:href="#d"></linearGradient><linearGradient id="aG" x1="-2520.53" x2="-2574.09" y1="743.9" y2="732.17" gradientTransform="rotate(1.61 11224.368 113535.991)" xlink:href="#d"></linearGradient><linearGradient id="aH" x1="3019.62" x2="3010.91" y1="365.24" y2="266.3" gradientTransform="matrix(-1 .07 .07 1 3651.44 -146.88)" xlink:href="#e"></linearGradient><linearGradient id="aI" x1="665.41" x2="711.1" y1="249.98" y2="354.57" xlink:href="#i"></linearGradient><linearGradient id="aJ" x1="358.67" x2="449.57" y1="459.26" y2="274.43" gradientTransform="rotate(-16.43 973.032 883.678)" xlink:href="#a"></linearGradient><linearGradient id="aK" x1="355.38" x2="426.11" y1="461.8" y2="317.99" gradientTransform="rotate(-16.43 973.032 883.678)" xlink:href="#a"></linearGradient><clipPath id="k"><path fill="none" d="m352.52 224.29-1.1 415.88 75.42 38.54 391.17.2-2.39-454.62h-463.1z"></path></clipPath></defs><g data-name="Layer 1" fill="#000000" class="color000 svgShape"><g data-name="4" fill="#000000" class="color000 svgShape"><g opacity=".3" fill="#000000" class="color000 svgShape"><path fill="#f9bfc0" d="M818.82 359.15c-7.15 419-630.42 419-637.52 0 7.16-419.01 630.43-418.94 637.52 0Z" opacity=".8" class="colorf9bfc0 svgShape"></path><path fill="#f9bfc0" d="M437.42 490.63c-4.2 245.5-369.38 245.47-373.54 0 4.19-245.5 369.38-245.47 373.54 0Zm125.16 0c4.2 245.5 369.38 245.47 373.54 0-4.19-245.5-369.38-245.47-373.54 0Z" opacity=".6" class="colorf9bfc0 svgShape"></path><path fill="#f9bfc0" d="M680.2 300.48c2.87 168.2 253.07 168.18 255.92 0-2.87-168.21-253.07-168.18-255.92 0Zm-360.4 0c-2.87 168.2-253.07 168.18-255.92 0 2.87-168.21 253.12-168.18 255.92 0Z" opacity=".5" class="colorf9bfc0 svgShape"></path></g><g opacity=".5" fill="#000000" class="color000 svgShape"><path fill="#f7a9ab" d="M846.65 678.91c17.4 34.89-710.75 34.89-693.3 0C136 644 864.1 644 846.65 678.91Z" opacity=".5" class="colorf7a9ab svgShape"></path><path d="M793.93 678.91c15 15.9-602.87 15.9-587.86 0-14.97-15.91 602.87-15.91 587.86 0Z" style="mix-blend-mode:multiply" fill="#f7a9ab" opacity=".5" class="colorf7a9ab svgShape"></path></g><g opacity=".8" fill="#000000" class="color000 svgShape"><path fill="#ea7171" d="M820 586c3.73-26.08 24.24-45.41 49.1-52.09 46.39-13.54 50.72-48.18 56.91-30.86s-6.81 36 4.33 49.56 2.27 38.9-15.57 44.46-81.71 47.93-81.71 81.8H785c-2.46 0-2.46-18.52-2.36-19.9.95-29.37 30.5-45.79 37.36-72.97Z" class="colorea7171 svgShape"></path><path fill="#ffffff" d="M854.78 608c-1-16.64 6.66-33.33 19.13-44.31 7.09-6.27 15-10.83 21.85-16.92 5.41-4.48 11.5-8.79 14.55-15.31-2.46 8-9.61 13.35-15.41 19-21.36 16.97-37.23 27.88-40.12 57.54Z" opacity=".8" class="colorfff svgShape"></path></g><path fill="#ea7171" d="M990.76 616.35c-6.67 20.91-24.85 32.55-45.55 37.14-58.85 13-86.41 21.26-95.56 24.2-4.26 2.39-49.81.79-55.37 1.22 15.89-36.94 13.65-101.31 94.85-95.79 54.43 10.28 75-29.65 88.24-41 2.8-2.42 13.44-12.64 15.11-4.49-5.57 26.25 5.84 52.49-1.72 78.72Z" class="colorea7171 svgShape"></path><path fill="#ea7171" d="M970.57 583.51c-10.16 39.52-59 40.74-92.3 43.7-21.16 2.47-42 14.46-47.49 36.29 2.73-22.63 24.37-37 45.54-40.08 33.22-4.32 80.1-2.42 94.25-39.91Z" class="colorea7171 svgShape"></path><path fill="#ffffff" d="M970.57 583.51c-10.16 39.52-59 40.74-92.3 43.7-21.16 2.47-42 14.46-47.49 36.29 2.73-22.63 24.37-37 45.54-40.08 33.22-4.32 80.1-2.42 94.25-39.91Z" opacity=".8" class="colorfff svgShape"></path><g opacity=".8" fill="#000000" class="color000 svgShape"><path fill="#ea7171" d="M180 586c-3.73-26.08-24.24-45.41-49.1-52.09-46.42-13.5-50.75-48.14-56.9-30.82s6.81 36-4.33 49.56-2.27 38.9 15.57 44.46 81.71 47.93 81.71 81.8H215c2.46 0 2.46-18.52 2.36-19.9-.95-29.41-30.5-45.83-37.36-73.01Z" class="colorea7171 svgShape"></path><path fill="#ffffff" d="M145.23 608c1-16.64-6.67-33.33-19.14-44.31-7.09-6.27-15-10.83-21.85-16.92-5.41-4.48-11.5-8.79-14.55-15.31 2.46 8 9.61 13.35 15.41 19 21.36 16.97 37.23 27.88 40.13 57.54Z" opacity=".8" class="colorfff svgShape"></path></g><path fill="#ea7171" d="M9.24 616.35c6.67 20.91 24.85 32.55 45.55 37.14 58.85 13 86.41 21.26 95.56 24.2 4.26 2.39 49.81.79 55.37 1.22-15.89-36.91-13.65-101.31-94.85-95.79-54.43 10.28-75-29.65-88.24-41-2.8-2.42-13.44-12.64-15.11-4.49 5.57 26.25-5.84 52.49 1.72 78.72Z" class="colorea7171 svgShape"></path><path fill="#ea7171" d="M29.43 583.51c10.16 39.52 59 40.74 92.3 43.7 21.16 2.47 42.05 14.46 47.49 36.29-2.73-22.63-24.37-37-45.54-40.08-33.22-4.32-80.1-2.42-94.25-39.91Z" class="colorea7171 svgShape"></path><path fill="#ffffff" d="M29.43 583.51c10.16 39.52 59 40.74 92.3 43.7 21.16 2.47 42.05 14.46 47.49 36.29-2.73-22.63-24.37-37-45.54-40.08-33.22-4.32-80.1-2.42-94.25-39.91Z" opacity=".8" class="colorfff svgShape"></path><rect width="89.07" height="89.07" x="737.53" y="232.06" fill="#f9bfc0" opacity=".5" rx="12.94" class="colorf9bfc0 svgShape"></rect><rect width="51.5" height="51.5" x="645.83" y="180.56" fill="#f9bfc0" opacity=".5" rx="7.48" class="colorf9bfc0 svgShape"></rect><rect width="26.27" height="26.27" x="735.67" y="137.56" fill="#f9bfc0" opacity=".5" rx="3.82" class="colorf9bfc0 svgShape"></rect><rect width="77.11" height="77.11" x="164.04" y="290.78" fill="#f9bfc0" opacity=".5" rx="11.2" transform="rotate(180 202.59 329.335)" class="colorf9bfc0 svgShape"></rect><rect width="44.58" height="44.58" x="275.94" y="246.2" fill="#f9bfc0" opacity=".5" rx="6.48" transform="rotate(180 298.23 268.49)" class="colorf9bfc0 svgShape"></rect><rect width="22.74" height="22.74" x="220.01" y="208.98" fill="#f9bfc0" opacity=".5" rx="3.3" transform="rotate(180 231.385 220.345)" class="colorf9bfc0 svgShape"></rect><path fill="url(#a)" d="M645.12 566.87c23-71.11-90.17-82.91-82.61-8.85 11.94 94.32-7.36 85.83 67.37 27.83a43 43 0 0 0 15.24-18.98Zm-34.67 8.29c-19.24 4.71-37.14-16.35-28.69-34.78a25.47 25.47 0 0 1 32.87-13.58c23.07 8.8 19.66 43.84-4.18 48.36Z"></path><path d="m574.31 623.64-7-67.6c-3.84-18 7-39.1 23.67-46.56-19.22 5.91-32.72 28.6-28.43 48.54l7 67.6c.54 4.58 6.05 5.46 8.82 2.2a4.68 4.68 0 0 1-4.06-4.18Z" style="mix-blend-mode:multiply" fill="url(#j)"></path><path fill="#6e2e2e" d="m529.64 219.33-184.57-32.39 2-8.13c-1 .23-26.54 5.16-26.71 5.24-8.56 1.64-11.13 14.69-10.37 15.57 0 9.19-1.28 454.7-1.28 455-.07 8.54 5.72 15 12.16 15.75l26.47 5.24-5.94-8.08 188.13-32.86c6.67-1.16 12-9.15 12-17.85L541.6 237c0-8.58-5.32-16.51-11.96-17.67Z" class="color6e2e2e svgShape"></path><path fill="#8c5050" d="m561.09 639.23-208.45 36.41c-9.48 1.65-17.23-5.63-17.2-16.29l1.3-464.85c0-10.55 7.78-17.74 17.2-16.09l207.26 36.37c6.78 1.19 12.23 9.29 12.22 18.1v388.1c-.04 8.9-5.51 17.02-12.33 18.25Z" class="color8c5050 svgShape"></path><path fill="#f8e4e3" d="m552.68 622.35-188.6 30.1c-7 1.12-12.68-4.38-12.66-12.28l1.13-426.66c0-7.83 5.71-13.26 12.65-12.14l187.62 30.13c5.16.83 9.32 6.9 9.32 13.58l-.09 363.59c-.05 6.73-4.18 12.85-9.37 13.68Z" class="colorf8e4e3 svgShape"></path><g clip-path="url(#k)" fill="#000000" class="color000 svgShape"><g opacity=".5" fill="#000000" class="color000 svgShape"><path fill="url(#b)" d="m548.15 544.77.76 70.08a2.68 2.68 0 0 1-2.66 2.72l-67.58.74a2.68 2.68 0 0 1-2.71-2.66l-.77-70.08a2.68 2.68 0 0 1 2.66-2.72l28.54-.31c8.45-.17 30.33-.28 39-.43a2.69 2.69 0 0 1 2.76 2.66Z"></path><path d="M548.91 614.34a2.78 2.78 0 0 1-2.65 3.23l-67.58.74a2.69 2.69 0 0 1-2.73-2.66l-.76-70.08a2.7 2.7 0 0 1 2.86-2.72l.77 69.57a2.68 2.68 0 0 0 2.72 2.66Z" style="mix-blend-mode:multiply" fill="url(#l)" opacity=".5"></path><path style="mix-blend-mode:multiply" fill="url(#m)" d="m519.8 542.39-.18 27.95-13.41-.09.18-27.71 13.41-.15z" opacity=".5"></path><path fill="url(#n)" d="M477.26 563.83c-1.11 1 3.12 56.31-1.41 54.24-1-1.11-54.57 3.08-52.37-1.43 1.1-1.13-3.13-56.26 1.4-54.24l21.27-.23c6.29-.12 22.59-.21 29.08-.32a2 2 0 0 1 2.03 1.98Z"></path><path d="M477.82 615.66a2.07 2.07 0 0 1-2 2.41l-50.35.55c-4.46 2.32-1.51-53.41-2.6-54.2a2 2 0 0 1 2.14-2l.57 51.83c-2.35 4.43 51.5.38 52.24 1.41Z" style="mix-blend-mode:multiply" fill="url(#o)" opacity=".5"></path><path style="mix-blend-mode:multiply" fill="url(#p)" d="m456.14 562.06-.14 20.82-9.99-.07.14-20.64 9.99-.11z" opacity=".5"></path><path fill="url(#q)" d="M547.73 487.33c-1.11 1 3.12 56.32-1.41 54.24-1-1.11-54.57 3.08-52.37-1.43 1.1-1.12-3.13-56.25 1.4-54.24l21.27-.23c6.3-.12 22.6-.21 29.08-.32a2 2 0 0 1 2.03 1.98Z"></path><path d="M548.29 539.16a2.07 2.07 0 0 1-2 2.41l-50.35.55c-4.46 2.32-1.51-53.41-2.6-54.19a2 2 0 0 1 2.14-2l.57 51.83c-2.35 4.42 51.5.38 52.24 1.4Z" style="mix-blend-mode:multiply" fill="url(#r)" opacity=".5"></path><path style="mix-blend-mode:multiply" fill="url(#s)" d="m526.61 485.56-.13 20.82-9.99-.07.13-20.64 9.99-.11z" opacity=".5"></path><path fill="url(#t)" d="M422.33 564.11c-1.1 1 3.13 56.31-1.4 54.23-1-1.1-54.57 3.09-52.38-1.43 1.11-1.12-3.12-56.25 1.41-54.23l21.27-.24c6.29-.12 22.59-.21 29.08-.31a2 2 0 0 1 2.02 1.98Z"></path><path d="M422.9 615.93a2.07 2.07 0 0 1-2 2.41l-50.35.55c-4.47 2.32-1.51-53.41-2.6-54.19a2 2 0 0 1 2.14-2l.56 51.82c-2.34 4.48 51.51.39 52.25 1.41Z" style="mix-blend-mode:multiply" fill="url(#u)" opacity=".5"></path><path style="mix-blend-mode:multiply" fill="url(#v)" d="m401.22 562.33-.14 20.82-9.99-.06.14-20.65 9.99-.11z" opacity=".5"></path><path fill="url(#w)" d="M446.1 528.08c-.66.67 1.91 34.95-.88 33.77-.61-.66-33.93 1.89-32.6-.89.65-.71-1.92-34.93.87-33.77l13.24-.14c3.92-.08 14.07-.13 18.11-.2a1.25 1.25 0 0 1 1.26 1.23Z"></path><path d="M446.45 560.35a1.28 1.28 0 0 1-1.23 1.49l-31.34.35c-2.78 1.36-.95-33.2-1.62-33.74a1.25 1.25 0 0 1 1.33-1.26l.35 32.27c-1.41 2.76 32.06.25 32.51.89Z" style="mix-blend-mode:multiply" fill="url(#x)" opacity=".5"></path><path style="mix-blend-mode:multiply" fill="url(#y)" d="m432.95 526.98-.08 12.96-6.22-.04.08-12.85 6.22-.07z" opacity=".5"></path><path fill="url(#z)" d="M479.85 528.08c-.65.67 1.92 34.95-.87 33.77-.62-.66-33.94 1.89-32.61-.89.65-.71-1.92-34.93.88-33.77l13.24-.14c3.92-.08 14.06-.13 18.1-.2a1.24 1.24 0 0 1 1.26 1.23Z"></path><path d="M480.21 560.35a1.28 1.28 0 0 1-1.23 1.49l-31.35.35c-2.77 1.36-.95-33.2-1.62-33.74a1.27 1.27 0 0 1 1.34-1.26l.35 32.27c-1.42 2.76 32.01.25 32.51.89Z" style="mix-blend-mode:multiply" fill="url(#A)" opacity=".5"></path><path style="mix-blend-mode:multiply" fill="url(#B)" d="m466.71 526.98-.09 12.96-6.22-.04.09-12.85 6.22-.07z" opacity=".5"></path><path fill="url(#C)" d="M459 501.12c-.48.49 1.4 25.62-.64 24.75-.45-.48-24.87 1.39-23.9-.65.48-.52-1.4-25.6.64-24.75l9.71-.11c2.87-.05 10.31-.09 13.26-.14a.92.92 0 0 1 .93.9Z"></path><path d="M459.28 524.77a1 1 0 0 1-.9 1.1l-23 .25c-2 1-.7-24.33-1.19-24.73a.92.92 0 0 1 1-.92l.26 23.65c-1.04 2.03 23.46.18 23.83.65Z" style="mix-blend-mode:multiply" fill="url(#D)" opacity=".5"></path><path style="mix-blend-mode:multiply" fill="url(#E)" d="m449.38 500.31-.06 9.5-4.56-.03.07-9.41 4.55-.06z" opacity=".5"></path><path fill="url(#F)" d="M522.39 460.56c-.48.49 1.41 25.62-.64 24.75-.45-.48-24.87 1.39-23.9-.65.48-.52-1.4-25.6.65-24.75l9.7-.11c2.87-.05 10.31-.09 13.27-.14a.91.91 0 0 1 .92.9Z"></path><path d="M522.65 484.21a1 1 0 0 1-.9 1.1l-23 .25c-2 1-.7-24.33-1.19-24.73a.93.93 0 0 1 1-.92l.26 23.65c-1.03 2.03 23.47.18 23.83.65Z" style="mix-blend-mode:multiply" fill="url(#G)" opacity=".5"></path><path style="mix-blend-mode:multiply" fill="url(#H)" d="m512.76 459.75-.06 9.5-4.56-.03.06-9.42 4.56-.05z" opacity=".5"></path></g><path fill="url(#i)" d="M773.8 365.64c38.14-22.94-42.27-38.28-54.57-61-9.67-18.2-17.6-40.49-43.7-29.15-27 11.21-17 38.24-14 54.89-20.15 22.52-18.84 51.93 14 51.07 13.29-.31 28.28-2.79 38.27 7.38 10.45 13.51 20.41 21 38 23 8.3 1.09 19.5-.28 16.89-10.07-5.16-19.26-23.06-20.97 5.11-36.12Z"></path><path fill="url(#c)" d="M658.73 654.77s-8.89 7.59-18.53 5.48c.77 9.29 32.18 8.52 39.59 3.56-3.33-13.24-9.89-14.29-21.06-9.04Z"></path><path fill="url(#d)" d="M658.93 647.19s.43 4.86.52 7.3c0 1.07 9.63 1.22 13.62-2l-2-5.74-9.64-2.75Z"></path><path fill="url(#I)" d="M669.6 555.52c7.51 28.42 2.72 91 1.5 91.18-7.18 4.22-12.17.49-12.17.49-3.8-26.87-26.06-169.51-13.63-200.19l17.79-6.64A62.63 62.63 0 0 1 677.57 465c5.53 20.46-6.03 73.42-7.97 90.52Z"></path><path d="M679.21 474.5c.85 16.66-7.56 68.63-9.61 81 1.9-12.88.62-64.45-10.3-87.26s-14.66-13.48-14.66-13.48l-.65-.86a63.18 63.18 0 0 1 1.31-6.9l17.79-6.64c1.25-.08 13.62 23.37 14.48 24.63a42.13 42.13 0 0 1 1.64 9.51Z" style="mix-blend-mode:multiply" fill="url(#J)" opacity=".5"></path><path fill="url(#K)" d="M591 392.68c-1.59.07-3.77-.69-5.22-.5-1.6 0-6.72-2.63-8.83-4.23s0-2 2-.91a16 16 0 0 0 2.54 1 36.66 36.66 0 0 1-6.62-4.83c-2-2 .24-2.11 2.26-.7 3.24 2.12 3.73 2.93 5.65 3.2-2-1-5.82-4.62-7.39-6.65-1.74-2.26.52-2.05 2.33-.38 3 2.62 3.29 3.41 5.33 4-1.51-1.54-4-6.37-4.73-8.84-.85-2.72 1.19-1.75 2.32.44 2.33 4.81 2.74 4.93 5.92 7.48 0 0 2.18 1.32 2.41-1.52s-.43-4.74.42-5.89 1.11-1.19 1.49-.67c-.62 4.12.8 3 2 7 .84 2.56 3.71 3.21 6.06 3.21a11.36 11.36 0 0 0-3.21 10.11c-1.64-.41-3.24-.88-4.85-1.3Z"></path><path fill="url(#L)" d="M673.16 321.46s1 22-6 24.27c0 0 9.9 12.09 21.82-4 0 0-1.45-11.61 1.29-20.47Z"></path><path fill="url(#M)" d="M666 295.4c3.62 12.1-8.77 25.76 6.93 38.39 0 0 19.09-.36 24.53-10.57 0 0 1.29-4.62 2.29-7.51s5.51-3.93 4.13-9-3.94-2.14-3.94-2.14-.09-3.81-.42-7S666 295.4 666 295.4Z"></path><path fill="url(#N)" d="M725 645.59s.94 16.72-11.45 21.48c6.63 7 31.52-13.93 34.3-22.73-8.57-6.55-14.85-6.4-22.85 1.25Z"></path><path fill="url(#O)" d="M722.31 638.5s1.86 4.69 2.66 7.09c.36 1 9.92-1.62 12.92-6l-3.64-5.11-10.38.2Z"></path><path fill="url(#P)" d="M709.69 551.12c.08 3.52.61 3.86 1.25 5.22 11.51 24.8 19.34 52.54 23.82 79.25-3.28 3-7.11 5.64-11.77 4.45-27.45-59.27-60.13-128-54.4-195.21 5.69-2.26 11.57-5.8 17.17-8.72 9.56 8.53 18.37 18.59 21 33.06 3.43 25.42 2.36 56.25 2.93 81.95Z"></path><path fill="url(#e)" d="M656.33 349.86c14.83 24.87 3.86 43-17.65 55.52l-.37-.2c-4.77 1.3-9.74-.48-14.4-2-10.38-3.5-21.1-5.76-31.23-10a17.62 17.62 0 0 0 2.93-9.64c12.2 1.38 36 3.9 36.5 3.94 9.42-3.59 24.22-37.62 24.22-37.62Z"></path><path fill="url(#Q)" d="M710.58 387.8c-3.14 19.47-8.43 39-14.49 57.59-18.19 6.08-53.48 2.69-51 1.81 2.39-9.75 3.58-31.13 2.42-43.72.18-8.4-4.89-15.43-4.58-23.84.12-6.52 4.33-10.73 6.67-16.27 1.87-4.2 3.65-8.45 5.74-12.5 4.22-4.81 12.51-5 16.31-10.37-.28.57-3.17 6.8 2.74 7.17 10.07.24 14.7-6.12 14.7-6.12 21.82 4.39 26.18 27.24 21.49 46.25Z"></path><path d="m655.12 390.61 1 .31a5.57 5.57 0 0 1-1-.31Z" style="mix-blend-mode:multiply" fill="url(#R)" opacity=".3"></path><path fill="url(#S)" d="m638.12 374.69-.47.44a1.52 1.52 0 0 1 .47-.44Z"></path><path d="M696.19 436.52c5.77-10.51-44.53-18.24-48.52-18l.13-2 22.65-9.77c6.75 1 20 2.67 25.2 3.43a1.26 1.26 0 0 0 1.38-1.59c-.85-3.11-.32-4.6-2.89-4.9-3.7-.43-7.88-.51-12.2-.66l-32.37 1.57-.79-10.48c37.34 5.8 38.58-23.94 40.14-18.63s-1.1 7.71-1.1 7.71l-4.44 15c13-1.41 13.51-20.8 14.61-23.43 2.18-3.1 2.53 21.07 11.49 16.87-1.91 18.08-8.14 36.52-13.39 53.81-18.2 6.08-53.48 2.69-51 1.81 33.12 1.27 46.28-4.26 51.1-10.74Z" style="mix-blend-mode:multiply" fill="url(#T)" opacity=".5"></path><path fill="url(#U)" d="M567.85 377.77a48.53 48.53 0 0 1 5.38 0c1.62.19 7.07-2 9.36-3.48s.21-2-2-1.11c-4.53 1.65-7.72 1.2-11.67 1.73Z"></path><path fill="url(#V)" d="M569.91 375.45a52.34 52.34 0 0 1 5.74-.77c1.75 0 7.25-3.17 9.49-5s0-2.15-2.23-.91-4.64 2.55-4.64 2.55l-7.57.92Z"></path><path fill="url(#W)" d="M570.68 373.2a52.74 52.74 0 0 1 5.59-1.55c1.73-.26 6.75-4.12 8.73-6.25s-.34-2.13-2.34-.6-4.25 3.16-4.25 3.16l-7.41 1.93Z"></path><path fill="url(#X)" d="M571.74 372a53.37 53.37 0 0 1 4.71-3.37c1.53-.84 4.93-6.19 6-8.87s-1-1.88-2.4.24-2.91 4.43-2.91 4.43l-6.26 4.34Z"></path><path fill="url(#Y)" d="M574.38 372.08c-3.92 8.86-10.2 6.91-10-2.76a2.52 2.52 0 0 1 .92-2c1.95-1.07 2-3.59 3.59-5.05s.41-3.3.84-3.8.68-.42 1.45.83c1.15.53-2 9.78 2.19 7.78.33 1.5.71 3.52 1.01 5Z"></path><path fill="url(#Z)" d="M499.88 368.76c-4.44 5.86-6.48 10.49-6.58 16.49-17.82-7.5-43.32-16.9-42.89-40.26.43-4.2 2-5.79 4.25-6.15 0 0 4.65 2.17 11.25 5.57l1.74.91c5.23 6.24 21.35 16.74 32.23 23.44Z"></path><path fill="url(#aa)" d="M567.49 377.61a238.28 238.28 0 0 1-44.85 12.58c-13.23 3.18-18.64.89-29.34-4.94.1-6 2.14-10.62 6.58-16.49 7.15 3.88 9.37 7 13.07 6.27 17.11-1 34-4.16 51-6l.45.29c-.31 2.68.81 7.12 3.09 8.29Z"></path><path fill="url(#ab)" d="M568.19 377.4c-.24.06-.47.13-.7.21-2.28-1.17-3.4-5.61-3.08-8.29l.12.08a38.63 38.63 0 0 0 3.66 8Z"></path><path fill="url(#f)" d="M496.64 567.31c-.8 27.68-8.59 55.82-4.85 83.48.18 1.14-9.93 2.9-14.82.31-1.45-32.31-12.43-66.47-4.35-98.94-7.8-14.32-30.67-54.44-38-75.95-4.49-13.06-.12-32.34 3.79-40.41l20.42.2c13.19 21.42 21.95 48.85 29.29 73.17 5.95 18.83 11.79 38.23 8.52 58.14Z"></path><path d="M442.94 496c-4.88-10.55-7.74-16.1-9.45-24.21l16.6-19.84s2.42 29.31-7.15 44.05Z" style="mix-blend-mode:multiply" fill="url(#ac)" opacity=".5"></path><path fill="url(#g)" d="M477 650.58s8.25 2.63 14.81.21c8.32 10 25.41 3.48 26.82 14.34 0 0-20.81 6.41-43.41 1.74a28.49 28.49 0 0 1 1.78-16.29Z"></path><path fill="url(#ad)" d="M323.6 592.18s4.15 7.59 10.57 10.37c-.86 13 16 20.07 9.51 28.89 0 0-19.49-9.72-32.61-28.7a28.35 28.35 0 0 1 12.53-10.56Z"></path><path fill="url(#ae)" d="M443.92 410.13a67.28 67.28 0 0 0-24.89 18c-14.09 17.79-24.08 68.17-30.64 89.84-28.25 17.95-43.9 50.21-65.15 74.61 1.74 5.25 10.28 11 10.93 10 10.26-14.92 25.88-26.41 39.59-38 11.65-9.86 22.86-20.16 33.86-30.73 27.48-38 48.27-94.09 50.94-109.45Z"></path><path fill="url(#af)" d="M477.54 320.28s-8.13 21.12-2.06 25.64c0 0-13.6 8.57-20-11 0 0 5.2-10.86 5.42-20.4Z"></path><path fill="url(#ag)" d="M495.75 299.06c-7.2 11.36 1.57 28.93-18.16 37.35 0 0-19.46-5.87-22.1-17.89 0 0 0-5.11-.18-8.37s-4.52-5.61-1.65-10.39 4.66-1.07 4.66-1.07 1.18-3.87 2.44-7.07 34.99 7.44 34.99 7.44Z"></path><path fill="url(#ah)" d="M487 371.73c-1.16 25.09-19.77 50.75-22.14 75.62-12.25 3.67-37.82-2.69-50.46-12.39a427.9 427.9 0 0 1 3.72-55.18c1.38-8.74 2.61-17.69 5.67-26 4.93-12 18.49-21.08 31.67-18.81-.69 3 18.11 20.3 17.74 4.78.4 2.11 2.64 4.64 4 6.09a38.7 38.7 0 0 1 9.8 25.89Z"></path><path fill="url(#ai)" d="M472.84 394.5h-1a6.25 6.25 0 0 0 1 0Z"></path><path fill="url(#h)" d="M495.84 298.25c-2.48 2.6-7.27 6.51-20.89 4.88 7.86-6.64-12.56-2.25-13.21 3.86-3.13 7.6-4.8-3.72-3.42-8.3 0 0-1.79-3.72-4.66 1.07s1.45 7.13 1.65 10.39c.32 4.59-.11 7.94.49 9.52 0 0-9.87-12.09-2.52-29.87s36.61-5.7 42.56 8.45Z"></path><path fill="url(#aj)" d="M491.15 301.59c1 3.67 6.17 2.89 6-1.79-.25-2.13-6 1.79-6 1.79Z"></path><path fill="url(#ak)" d="M452.16 285.48c2.1-5.67 5-10.88 9.89-14.64 12.7-10.52 37.47-3 37.24 15-.24 1.33-.08 2.88 1.31 3.5 9.56 5.35 20.38 7.43 2.48 11.36-21 4-22.9-4.32-38.88-4.79-8.2.48-15.98.76-12.04-10.43Z"></path><path d="M468.36 365.23c-.26 3.18-4.27 2.81-3.94-.37s4.27-2.81 3.94.37Z" style="mix-blend-mode:multiply" fill="url(#al)"></path><path d="M467.59 383.21c-.26 3.19-4.28 2.81-3.94-.36s4.27-2.85 3.94.36Z" style="mix-blend-mode:multiply" fill="url(#am)"></path><path d="M467 401.45c-.26 3.18-4.27 2.81-3.94-.37s4.25-2.81 3.94.37Z" style="mix-blend-mode:multiply" fill="url(#an)"></path><path d="M464.66 419.74c-.25 3.18-4.27 2.81-3.94-.37s4.28-2.8 3.94.37Z" style="mix-blend-mode:multiply" fill="url(#ao)"></path><path fill="url(#ap)" d="m630.05 340.65-16.74 86.69a3.38 3.38 0 0 1-4 2.68l-83.59-16.13a3.38 3.38 0 0 1-2.68-4l16.73-86.69a3.39 3.39 0 0 1 4-2.68l35.3 6.81c10.47 1.93 37.5 7.31 48.29 9.33a3.38 3.38 0 0 1 2.69 3.99Z"></path><path d="M613.44 426.7a3.5 3.5 0 0 1-4.09 3.32l-83.59-16.13a3.4 3.4 0 0 1-2.69-4l16.74-86.69a3.41 3.41 0 0 1 4.19-2.6l-16.61 86a3.4 3.4 0 0 0 2.69 4Z" style="mix-blend-mode:multiply" fill="url(#aq)" opacity=".5"></path><path style="mix-blend-mode:multiply" fill="url(#ar)" d="m595.67 330.57-7.28 34.44-16.52-3.49 7.21-34.16 16.59 3.21z" opacity=".5"></path><path fill="url(#as)" d="M455.9 334s-2.48-.6-3.35.54 1.66 15.9 4 17.83 11.45-6.53 11.45-6.53-11.22-5.91-12.1-11.84Z"></path><path fill="url(#at)" d="M473.27 339.87c4.84 4.33-3.86 25.3-5.31 6 .04-.03 4.85.59 5.31-6Z"></path><path d="M464.9 447.35c-12.25 3.67-37.82-2.69-50.46-12.39.19-21.74 1.56-45.18 5.66-66.82 1.45-5.68 2.2-18.89 10.17-17.26 4.88 2.55 30.21 43.22 30.21 43.22s-14 1.4-28.25-9.41c-4.39-2.11-4.23 3-6.52 8.46-3.44 12.21-9.54 28.14-3.68 39.06 4.07 5.53 15.59 11.97 42.87 15.14Z" style="mix-blend-mode:multiply" fill="url(#au)" opacity=".8"></path><path fill="url(#av)" d="m487.68 410.29-.17-.09Z"></path><path d="m456.78 360.42 2.6 2.61c-.93-.86-1.8-1.73-2.6-2.61Z" style="mix-blend-mode:multiply" fill="url(#aw)" opacity=".8"></path><path d="M486 380.21c-.4 2.36-.94 5-1.67 7.83l-24.91-25c9.88 9.19 26.16 16.96 26.58 17.17Z" style="mix-blend-mode:multiply" fill="url(#ax)" opacity=".8"></path><path fill="url(#ay)" d="M560.71 404a54.08 54.08 0 0 1 6 .65c1.79.41 8.19-1.41 10.93-2.73s.49-2.21-2-1.49c-5.29 1.28-8.81.38-13.32.48Z"></path><path fill="url(#az)" d="M563.31 401.66a60.19 60.19 0 0 1 6.54-.15c2 .19 8.53-2.65 11.27-4.44s.22-2.42-2.39-1.3-5.52 2.28-5.52 2.28l-8.61.09Z"></path><path fill="url(#aA)" d="M564.46 399.23a58.64 58.64 0 0 1 6.46-1c2-.09 8.09-3.78 10.57-5.93s-.11-2.43-2.54-1-5.17 3-5.17 3l-8.52 1.24Z"></path><path fill="url(#aB)" d="M565.79 398.07a57 57 0 0 1 5.71-3.19c1.82-.76 6.3-6.33 7.89-9.2s-.94-2.24-2.72 0-3.82 4.6-3.82 4.6l-7.57 4.1Z"></path><path fill="url(#aC)" d="M568.74 398.44c-5.5 9.45-12.3 6.48-10.83-4.34a2.84 2.84 0 0 1 1.27-2.12c2.33-1 2.72-3.77 4.67-5.21s.87-3.66 1.42-4.16.81-.39 1.52 1.1c1.25.83-3.52 10.63 1.49 9 .14 1.72.32 4.03.46 5.73Z"></path><path fill="url(#aD)" d="M485.59 385.4c-5.71 6-8.58 11-9.44 17.68-19-10.64-46.48-24.37-43.08-50.52 1-4.66 2.92-6.26 5.54-6.37 0 0 4.94 3 11.91 7.65l1.85 1.24c5.08 7.66 21.89 21.46 33.22 30.32Z"></path><path fill="url(#aE)" d="M560.32 403.78a269.58 269.58 0 0 1-51.87 8.51c-15.24 1.91-21-1.34-32.3-9.21.86-6.72 3.73-11.65 9.44-17.68 7.45 5.22 9.78 9.11 13.88 8.68 19.31 1 38.63-.43 58-.36l.47.38c-.72 2.97-.02 8.08 2.38 9.68Z"></path><path fill="url(#aF)" d="M561.14 403.64c-.28 0-.55.08-.82.14-2.4-1.6-3.1-6.71-2.41-9.68l.12.1a43.85 43.85 0 0 0 3.11 9.44Z"></path><path fill="url(#aG)" d="M621.37 405.63c-2 .09-4.73-.86-6.54-.63-2 .05-8.43-3.3-11.08-5.3s0-2.47 2.51-1.15a20.63 20.63 0 0 0 3.18 1.29 46.14 46.14 0 0 1-8.3-6.06c-2.54-2.51.3-2.64 2.83-.87 4.07 2.65 4.68 3.67 7.1 4-2.47-1.25-7.31-5.78-9.28-8.34-2.17-2.83.66-2.57 2.93-.48 3.78 3.29 4.13 4.29 6.68 5-1.89-1.94-4.95-8-5.93-11.1-1.07-3.41 1.5-2.19 2.91.55 3.09 6.28 3.24 6 7.42 9.39 0 0 2.74 1.65 3-1.9s-.54-6 .54-7.39 1.39-1.5 1.86-.85c-.73 5.48.91 3.48 2.56 8.79 1.19 3.32 4.52 4 7.6 4a14.28 14.28 0 0 0-4 12.63c-2.05-.52-4.06-1.11-6.07-1.64Z"></path><path fill="url(#aH)" d="M705.62 351.75s11.69 12.06 5.26 38.48c-3.39 12.6-14.75 21.27-25 28.41-7.44 4.93-15.37 2.74-23.21.11-13-4.38-26.46-7.22-39.17-12.52a22.3 22.3 0 0 0 3.7-12.08c15.31 1.74 45.19 4.89 45.76 4.94 11.84-4.48 32.66-47.34 32.66-47.34Z"></path><path fill="url(#aI)" d="M666.58 287.31c-4.85-26.27 36.17-17.31 42.32 7l-1.7-.07-1.1 10.17c-8.06 4.54-25.38 8.78-34.43-5.63a8 8 0 0 1-7.72 3.93 31.55 31.55 0 0 1 2.63-15.4Z"></path></g><path fill="url(#aJ)" d="M348.6 523.1c-42.41-111-194.24-12.63-111 71.45 108.84 104.77 76.5 113.52 111.1-32.76a68.46 68.46 0 0 0-.1-38.69ZM314 567.94c-19.09 25-62.25 16.82-70.17-14.41A40.45 40.45 0 0 1 270.91 504c37.32-12.18 68.09 34.56 43.09 63.94Z"></path><path d="m317.62 664-76.13-76.61c-22.76-18.51-30.41-55.3-17.16-81.21-17.88 26.48-12 68 13.24 88.41l76.13 76.61c5.22 5.13 12.91.72 13.1-6.08a7.45 7.45 0 0 1-9.18-1.12Z" style="mix-blend-mode:multiply" fill="url(#aK)"></path></g></g></svg></g></svg>