<svg id="SvgjsSvg1222" width="256" height="256" xmlns="http://www.w3.org/2000/svg" version="1.1" xmlns:xlink="http://www.w3.org/1999/xlink" xmlns:svgjs="http://svgjs.com/svgjs"><defs id="SvgjsDefs1223"></defs><g id="SvgjsG1224"><svg xmlns="http://www.w3.org/2000/svg" viewBox="0 0 64 64" width="256" height="256"><g data-name="19-sauce" fill="#000000" class="color000 svgShape"><path fill="#e8e4dc" d="M27,35V51a4,4,0,0,1-4,4H9a4,4,0,0,1-4-4V35a4,4,0,0,1,4-4H23A4,4,0,0,1,27,35ZM20.23,48A2.783,2.783,0,0,0,23,45.2a2.612,2.612,0,0,0-2.31-2.4s-2.77.4-2.77-1.2S14.65,40,14.65,40C12.36,40,11,41.43,11,43.2c0,2.65,1.65,4.8,3.69,4.8Z" class="colore8e4dc svgShape"></path><path fill="#4d2829" d="M9,55H23a4,4,0,0,0,4-4v5.62a1.992,1.992,0,0,1-1.55,1.95A26.876,26.876,0,0,1,20,59l-2-1H14l-2,1a26.876,26.876,0,0,1-5.45-.43A1.992,1.992,0,0,1,5,56.62V51A4,4,0,0,0,9,55Z" class="color4d2829 svgShape"></path><path fill="#ea735c" d="M17.92,41.6c0,1.6,2.77,1.2,2.77,1.2A2.612,2.612,0,0,1,23,45.2,2.783,2.783,0,0,1,20.23,48H14.69C12.65,48,11,45.85,11,43.2c0-1.77,1.36-3.2,3.65-3.2C14.65,40,17.92,40,17.92,41.6Z" class="colorea735c svgShape"></path><polygon fill="#4d2829" points="10 17 22 17 21 20 11 20 10 17" class="color4d2829 svgShape"></polygon><polygon fill="#a0968c" points="21 1 21 5 20 5 12 5 11 5 11 1 21 1" class="colora0968c svgShape"></polygon><path fill="#6b362c" d="M22 10.77V17H10V10.77a4.032 4.032 0 0 1 .29-1.49L12 5h8l1.71 4.28A4.032 4.032 0 0 1 22 10.77zM31 29.92V57a6 6 0 0 1-6 6H7a6 6 0 0 1-6-6V29.92A4 4 0 0 1 2.5 26.8L11 20H21l8.5 6.8A4 4 0 0 1 31 29.92zm-4 26.7V35a4 4 0 0 0-4-4H9a4 4 0 0 0-4 4V56.62a1.992 1.992 0 0 0 1.55 1.95A26.876 26.876 0 0 0 12 59l2-1h4l2 1a26.876 26.876 0 0 0 5.45-.43A1.992 1.992 0 0 0 27 56.62z" class="color6b362c svgShape"></path><path fill="#bd4c3d" d="M20.69,42.8s-2.77.4-2.77-1.2S14.65,40,14.65,40C12.36,40,11,41.43,11,43.2c0,2.65,1.65,4.8,3.69,4.8h5.54A2.783,2.783,0,0,0,23,45.2,2.612,2.612,0,0,0,20.69,42.8ZM20.23,47H14.69C13.232,47,12,45.26,12,43.2c0-1.337,1.04-2.2,2.65-2.2,1.148,0,2.27.379,2.27.6a1.993,1.993,0,0,0,.695,1.553,4.379,4.379,0,0,0,3.122.65A1.67,1.67,0,0,1,22,45.2,1.788,1.788,0,0,1,20.23,47Z" class="colorbd4c3d svgShape"></path><rect width="10" height="1" x="11" y="1" fill="#cdc3b4" class="colorcdc3b4 svgShape"></rect><rect width="1" height="2" x="11" y="2" fill="#918778" class="color918778 svgShape"></rect><rect width="1" height="2" x="13" y="2" fill="#918778" class="color918778 svgShape"></rect><rect width="1" height="2" x="15" y="2" fill="#918778" class="color918778 svgShape"></rect><rect width="1" height="2" x="19" y="2" fill="#918778" class="color918778 svgShape"></rect><rect width="1" height="2" x="17" y="2" fill="#918778" class="color918778 svgShape"></rect><circle cx="15" cy="44" r="1" fill="#ffd0c9" class="colorffd0c9 svgShape"></circle><path fill="#ff9873" d="M23,32H9a3,3,0,0,0-3,3V51a3,3,0,0,0,3,3H23a3,3,0,0,0,3-3V35A3,3,0,0,0,23,32ZM20.23,48H14.69C12.65,48,11,45.85,11,43.2c0-1.77,1.36-3.2,3.65-3.2,0,0,3.27,0,3.27,1.6s2.77,1.2,2.77,1.2A2.612,2.612,0,0,1,23,45.2,2.783,2.783,0,0,1,20.23,48Z" class="colorff9873 svgShape"></path><polygon fill="#331a1b" points="13 17 10 17 11 20 14 20 13 17" class="color331a1b svgShape"></polygon><path fill="#4d271f" d="M13 13a4 4 0 0 1 4-4h4.6L20 5H12L10.29 9.28A4.032 4.032 0 0 0 10 10.77V17h3zM25 59H11c-.172 0-.342-.012-.511-.026a22.942 22.942 0 0 1-3.939-.4A1.992 1.992 0 0 1 5 56.62V30.657a4 4 0 0 1 1.172-2.829L14 20H11L2.5 26.8A4 4 0 0 0 1 29.92V57a6 6 0 0 0 6 6H25a6 6 0 0 0 6-6V53A6 6 0 0 1 25 59z" class="color4d271f svgShape"></path><path fill="#8a4539" d="M30.013,29.361a3.033,3.033,0,0,0,.317-1.612,3.945,3.945,0,0,0-.83-.949l-8.491-6.793a1.993,1.993,0,0,0-1.789,1.079,2.076,2.076,0,0,0,.668,2.579l.265.2A1.742,1.742,0,0,1,19.107,27h0a2.075,2.075,0,0,0-2.08,1.664A2,2,0,0,0,19,31h8.17A3.154,3.154,0,0,0,30.013,29.361Z" class="color8a4539 svgShape"></path><rect width="4" height="18" x="27" y="34" fill="#8a4539" rx="2" ry="2" class="color8a4539 svgShape"></rect><rect width="7" height="4" x="9" y="27" fill="#8a4539" rx="2" ry="2" class="color8a4539 svgShape"></rect><rect width="3" height="6" x="19" y="11" fill="#8a4539" rx="1.5" ry="1.5" class="color8a4539 svgShape"></rect><ellipse cx="22.58" cy="34.695" fill="#f6fafd" rx="1.642" ry="2.286" transform="rotate(-45.02 22.58 34.694)" class="colorf6fafd svgShape"></ellipse><ellipse cx="21.577" cy="38.708" fill="#f6fafd" rx=".825" ry="1.148" transform="rotate(-45.02 21.577 38.708)" class="colorf6fafd svgShape"></ellipse><rect width="12" height="3" x="33" y="60" fill="#cdc3b4" class="colorcdc3b4 svgShape"></rect><rect width="12" height="3" x="33" y="57" fill="#ede9e1" class="colorede9e1 svgShape"></rect><path fill="#e7aa2f" d="M50,48.49a2.106,2.106,0,0,1-1.18,1.82A8.173,8.173,0,0,0,45,57H33a8.173,8.173,0,0,0-3.82-6.69A2.106,2.106,0,0,1,28,48.49V47c0,1.66,4.92,3,11,3s11-1.34,11-3Z" class="colore7aa2f svgShape"></path><path fill="#ffcf4f" d="M47.84,29.01C47.85,25.52,48,23,48,23V21a4,4,0,0,0-4-4H34a4,4,0,0,0-4,4v2s.15,2.52.16,6.02C30.18,34.61,29.84,42.7,28,47c0,1.66,4.92,3,11,3s11-1.34,11-3C48.15,42.69,47.82,34.6,47.84,29.01ZM42,42H36L33,29h1l-1-4h2c0-1.11,1.24-3,4-3s4,1.89,4,3h2l-1,4h1Z" class="colorffcf4f svgShape"></path><path fill="#f7f3eb" d="M45,29,42,42H36L33,29h1l-1-4h2c0-1.11,1.24-3,4-3s4,1.89,4,3h2l-1,4Z" class="colorf7f3eb svgShape"></path><path fill="#ff9b54" d="M43,25c0-1.11-1.24-3-4-3s-4,1.89-4,3H33l1,4H33l3,13h6l3-13H44l1-4Zm-1.8,16H36.8L34.25,29.969a1,1,0,0,0,.72-1.211L34.281,26H35a1,1,0,0,0,1-1c0-.513.739-2,3-2s3,1.487,3,2a1,1,0,0,0,1,1h.719l-.689,2.758a1,1,0,0,0,.72,1.211Z" class="colorff9b54 svgShape"></path><path fill="#e79d2f" d="M33.18,50.31a2.3,2.3,0,0,1-.941-.945C29.662,48.816,28,47.963,28,47v1.49a2.106,2.106,0,0,0,1.18,1.82A8.173,8.173,0,0,1,33,57h4A8.173,8.173,0,0,0,33.18,50.31Z" class="colore79d2f svgShape"></path><path fill="#f4be2b" d="M32.239,49.365A1.858,1.858,0,0,1,32,48.49V47c1.369-3.2,1.907-8.495,2.085-13.3L33,29h1l-1-4h1.087C34.044,23.752,34,23,34,23V21a4,4,0,0,1,4-4H34a4,4,0,0,0-4,4v2s.15,2.52.16,6.02C30.18,34.61,29.84,42.7,28,47,28,47.963,29.662,48.816,32.239,49.365Z" class="colorf4be2b svgShape"></path><rect width="6" height="2" x="36" y="58" fill="#cdc3b4" class="colorcdc3b4 svgShape"></rect><rect width="12" height="1" x="33" y="62" fill="#e7aa2f" class="colore7aa2f svgShape"></rect><path fill="#ffe296" d="M43.041 45.8a4.844 4.844 0 0 0-2.26 1.005.807.807 0 0 0-.24.457.692.692 0 0 0 .3.591 1.776 1.776 0 0 0 .636.263 9.151 9.151 0 0 0 4.016.108 4.5 4.5 0 0 0 1.595-.589 2.245 2.245 0 0 0 1-1.338 1.8 1.8 0 0 0-.429-1.6 1.534 1.534 0 0 0-2.04-.293A8.392 8.392 0 0 1 43.041 45.8zM41.316 17.985a3.019 3.019 0 0 0-1.191.2 1.225 1.225 0 0 0-.745.895c-.083.605.422 1.115.891 1.507q.773.646 1.573 1.261a5 5 0 0 0 3.119 1.315A2.131 2.131 0 0 0 46.44 22.5a2.526 2.526 0 0 0 .475-1.74 1.976 1.976 0 0 0-.753-1.473A4.07 4.07 0 0 0 44.7 18.42 9.629 9.629 0 0 0 41.316 17.985z" class="colorffe296 svgShape"></path><polygon fill="#ea735c" points="55 17 57 25 51 25 53 17 55 17" class="colorea735c svgShape"></polygon><path fill="#e8e4dc" d="M45,38H63V56H45Zm9,15a5,5,0,0,0,5-5c0-2.76-2.24-4-5-4s-5,1.24-5,4A5,5,0,0,0,54,53Z" class="colore8e4dc svgShape"></path><path fill="#ea735c" d="M63,31v7H45V31a2.006,2.006,0,0,1,2-2H61A2.006,2.006,0,0,1,63,31Z" class="colorea735c svgShape"></path><path fill="#e84655" d="M54,44c2.76,0,5,1.24,5,4a5,5,0,0,1-10,0C49,45.24,51.24,44,54,44Z" class="colore84655 svgShape"></path><path fill="#e8e4dc" d="M60,27v2H48V27a2.006,2.006,0,0,1,2-2h8A2.006,2.006,0,0,1,60,27Z" class="colore8e4dc svgShape"></path><path fill="#ea735c" d="M63,56v5a2.006,2.006,0,0,1-2,2H47a2.006,2.006,0,0,1-2-2V56Z" class="colorea735c svgShape"></path><path fill="#c43b48" d="M55,51a5,5,0,0,1-5-5,4.377,4.377,0,0,1,.071-.676A3.579,3.579,0,0,0,49,48a4.993,4.993,0,0,0,9.855,1.147A4.967,4.967,0,0,1,55,51Z" class="colorc43b48 svgShape"></path><path fill="#d6cec1" d="M58,27H50a2,2,0,0,1-1.721-1A1.975,1.975,0,0,0,48,27v2H60V27a1.975,1.975,0,0,0-.279-1A2,2,0,0,1,58,27Z" class="colord6cec1 svgShape"></path><path fill="#bd4c3d" d="M54.153,24a1,1,0,0,1-.99-1.141L54,17H53l-2,8h6l-.25-1Z" class="colorbd4c3d svgShape"></path><path fill="#d6cec1" d="M49.866,50.809A4.971,4.971,0,0,1,49,48a4.422,4.422,0,0,1,.068-.648C49.026,46.907,49,46.457,49,46V38H45V56h8.211A14,14,0,0,1,49.866,50.809Z" class="colord6cec1 svgShape"></path><path fill="#bd4c3d" d="M49 31a2 2 0 0 1 2-2H47a2.006 2.006 0 0 0-2 2v7h4zM45 56v5a2.006 2.006 0 0 0 2 2H61a2.006 2.006 0 0 0 2-2V60a13.948 13.948 0 0 1-9.789-4z" class="colorbd4c3d svgShape"></path><path fill="#537134" d="M54.5,42.411V40h-1v2.157A7.025,7.025,0,0,0,50,41.5v1c3.084,0,3.5.758,3.5,1.5h1c0-.708,1.5-1.5,3.5-1.5v-1A6.283,6.283,0,0,0,54.5,42.411Z" class="color537134 svgShape"></path><path fill="#f7f3eb" d="M59,39a2,2,0,0,0,4,0V38H59Z" class="colorf7f3eb svgShape"></path><path fill="#ff7d64" d="M60,29H55.107a2.075,2.075,0,0,0-2.08,1.664A2,2,0,0,0,55,33h2a2,2,0,0,1,2,2v3h4V32A3,3,0,0,0,60,29Z" class="colorff7d64 svgShape"></path><path fill="#f7f3eb" d="M61,42a2,2,0,0,0-2,2v2a2,2,0,0,0,4,0V44A2,2,0,0,0,61,42Z" class="colorf7f3eb svgShape"></path><ellipse cx="60.58" cy="31.695" fill="#f6fafd" rx="1.642" ry="2.286" transform="rotate(-45.02 60.58 31.695)" class="colorf6fafd svgShape"></ellipse><ellipse cx="56.577" cy="46.708" fill="#f6fafd" rx=".825" ry="1.148" transform="rotate(-45.02 56.577 46.708)" class="colorf6fafd svgShape"></ellipse></g></svg></g></svg>