<svg id="SvgjsSvg1082" width="256" height="256" xmlns="http://www.w3.org/2000/svg" version="1.1" xmlns:xlink="http://www.w3.org/1999/xlink" xmlns:svgjs="http://svgjs.com/svgjs"><defs id="SvgjsDefs1083"></defs><g id="SvgjsG1084"><svg xmlns="http://www.w3.org/2000/svg" viewBox="0 0 128 128" width="256" height="256"><path fill="#ef9a29" d="M40.3 87.5c-13.6-13.6-5.1-44.2 14.1-63.4s41.7-19.7 55.3-6 13.1 36.1-6 55.3-49.8 27.7-63.4 14.1z" class="coloref9a29 svgShape"></path><path fill="#e28414" d="M112.7 60.8C90 83.5 53.7 93.7 37.5 77.5c-1.4-1.4-2.6-3-3.7-4.7.6 5.8 2.7 11 6.5 14.8 13.6 13.6 44.2 5.1 63.4-14.1 4.7-4.7 8.2-9.6 10.8-14.5l-1.8 1.8z" class="colore28414 svgShape"></path><path fill="#efefef" d="M24.2 93.1 36 81.3c1 2.3 2.5 4.5 4.3 6.3 1.7 1.7 3.8 3.1 6 4.2l-9.8 9.4c-1.3 1.2-1.5 3.1-.7 4.6 1.7 3.4 1.1 7.6-1.7 10.4-3.5 3.5-9.2 3.5-12.7 0a8.81 8.81 0 0 1-2.6-6.6c-2.5.1-5.1-.8-7-2.7-3.6-3.6-3.6-9.4 0-13 3.4-3.5 8.8-3.8 12.4-.8z" class="colorefefef svgShape"></path><path fill="none" stroke="#31352e" stroke-miterlimit="10" stroke-width="6" d="M46.3 91.7c-2.2-1-4.3-2.4-6-4.2-1.8-1.8-3.2-3.9-4.3-6.3-6.8-15.2 1.8-40.4 18.4-57 19.2-19.2 41.7-19.6 55.3-6 13.6 13.6 13.1 36.1-6 55.3C87 90.2 61.6 98.8 46.3 91.7z" class="colorStroke31352e svgStroke"></path><path fill="none" stroke="#31352e" stroke-miterlimit="10" stroke-width="6" d="M24.2 93.1 36 81.3l.5-.5M46.8 91.2l-.5.5-11.1 11.1" class="colorStroke31352e svgStroke"></path><path fill="none" stroke="#31352e" stroke-linecap="round" stroke-linejoin="round" stroke-miterlimit="10" stroke-width="6" d="M27.5 100.8c.1-2.5-.7-5.1-2.7-7-.2-.2-.4-.4-.7-.6-3.6-3-9-2.8-12.4.6-3.6 3.6-3.6 9.4 0 13 1.9 1.9 4.5 2.8 7 2.7-.1 2.4.8 4.8 2.6 6.6 3.5 3.5 9.2 3.5 12.7 0s3.5-9.2 0-12.7" class="colorStroke31352e svgStroke"></path><ellipse cx="84.7" cy="20.5" fill="#ffb56c" rx="6.6" ry="11.6" transform="rotate(83.131 84.692 20.498)" class="colorffb56c svgShape"></ellipse></svg></g></svg>