<svg id="SvgjsSvg1046" width="256" height="256" xmlns="http://www.w3.org/2000/svg" version="1.1" xmlns:xlink="http://www.w3.org/1999/xlink" xmlns:svgjs="http://svgjs.com/svgjs"><defs id="SvgjsDefs1047"></defs><g id="SvgjsG1048"><svg xmlns="http://www.w3.org/2000/svg" enable-background="new 0 0 492 492" viewBox="0 0 492 492" width="256" height="256"><path fill="#91c83c" fill-rule="evenodd" d="M325.701,115.613c0,0,54.146,24.312,8.702,62.174
							c0,0-3.806-0.962-9.957-1.481c1.639-4.392,2.534-9.146,2.534-14.107c0-22.293-18.069-40.363-40.361-40.363
							c-6.502,0-12.641,1.538-18.077,4.267l-2.563-11.895c-2.518-11.69-14.035-19.125-25.725-16.605l-9.72,2.093
							c-10.85,2.34-18.036,12.427-16.994,23.215c-2.981-0.703-6.089-1.075-9.283-1.075c-22.291,0-40.361,18.069-40.361,40.363
							c0,5.892,1.262,11.489,3.533,16.536c-7.8-1.131-12.595-0.948-12.595-0.948s-36.684-38.162,5.112-57.753
							c0,0,5.527-34.257,43.097-24.312c0,0,33.444-57.46,78.458-6.384C281.501,89.338,323.491,79.147,325.701,115.613z" clip-rule="evenodd" class="color91c83c svgShape"></path><path fill="#fca358" fill-rule="evenodd" d="M291.527,362.914c-0.408-6.66-0.96-13.08-1.639-19.269
							c-3.374-30.775-9.941-55.845-18.439-76.264h0.003c1.656,0.682,3.468,1.056,5.371,1.056c7.786,0,14.1-6.312,14.1-14.1
							c0-7.791-6.315-14.105-14.1-14.105c-6.367,0-11.743,4.214-13.5,10.003c-5.76-10.714-12.089-19.845-18.703-27.626
							c5.393-11.618,12.033-20.426,19.24-27.074c20.962-19.334,46.728-20.4,60.585-19.229c6.151,0.518,9.958,1.481,9.958,1.481
							l-17.306,229.906c-0.746,9.931-9.022,17.606-18.979,17.606l-6.672,0C292.742,402.463,292.692,381.732,291.527,362.914z" clip-rule="evenodd" class="colorfca358 svgShape"></path><path fill="#f9705a" fill-rule="evenodd" d="M326.98,162.199c0,4.961-0.895,9.715-2.534,14.107
							c-13.858-1.171-39.624-0.106-60.585,19.229c-7.687-5.256-13.461-13.099-16.068-22.279c-0.998-3.513-1.536-7.224-1.536-11.057
							c0-15.792,9.072-29.467,22.286-36.096c5.436-2.729,11.575-4.267,18.077-4.267C308.911,121.836,326.98,139.906,326.98,162.199z
							" clip-rule="evenodd" class="colorf9705a svgShape"></path><path fill="#fc933a" fill-rule="evenodd" d="M232.075,209.656c4.248,3.835,8.45,8.136,12.545,12.953
							c6.614,7.781,12.943,16.913,18.703,27.626c2.861,5.316,5.582,11.021,8.126,17.146c8.498,20.419,15.065,45.489,18.439,76.264
							c-2.496-2.234-5.794-3.598-9.413-3.598c-7.788,0-14.102,6.317-14.102,14.105c0,7.79,6.315,14.102,14.102,14.102
							c4.481,0,8.467-2.088,11.052-5.34c1.164,18.818,1.214,39.549-0.082,62.385H191.12c-9.957,0-18.233-7.675-18.979-17.606
							l-17.306-229.906c0,0,4.795-0.182,12.595,0.948c14.803,2.15,40.435,9.038,64.646,30.919L232.075,209.656L232.075,209.656z
							 M221.995,259.18c0-7.79-6.314-14.105-14.102-14.105c-7.79,0-14.105,6.314-14.105,14.105c0,7.788,6.314,14.102,14.105,14.102
							C215.681,273.282,221.995,266.968,221.995,259.18L221.995,259.18z M221.995,382.534c0-7.788-6.314-14.102-14.102-14.102
							c-7.79,0-14.105,6.315-14.105,14.102c0,7.79,6.314,14.105,14.105,14.105C215.681,396.639,221.995,390.324,221.995,382.534z" clip-rule="evenodd" class="colorfc933a svgShape"></path><path fill="#e87c20" fill-rule="evenodd" d="M289.889 343.645c.679 6.19 1.231 12.61 1.639 19.269-2.585 3.252-6.571 5.34-11.052 5.34-7.788 0-14.102-6.312-14.102-14.102 0-7.788 6.314-14.105 14.102-14.105C284.095 340.047 287.392 341.41 289.889 343.645zM276.823 240.232c7.786 0 14.1 6.314 14.1 14.105 0 7.788-6.315 14.1-14.1 14.1-1.903 0-3.715-.375-5.371-1.056l-.003 0c-2.544-6.125-5.266-11.83-8.126-17.146C265.08 244.446 270.456 240.232 276.823 240.232z" clip-rule="evenodd" class="colore87c20 svgShape"></path><path fill="#ab4d40" fill-rule="evenodd" d="M265.98,114.209l2.563,11.895
							c-13.214,6.629-22.286,20.304-22.286,36.096c0,3.833,0.537,7.543,1.536,11.057c2.606,9.18,8.381,17.023,16.068,22.279
							c-7.207,6.648-13.848,15.456-19.24,27.074c-4.094-4.817-8.297-9.118-12.545-12.953v-0.002l-3.314-15.379l-1.404-6.516
							l-13.43-62.335c-0.18-0.84-0.31-1.68-0.386-2.513c-1.042-10.788,6.144-20.875,16.994-23.215l9.72-2.093
							C251.945,95.083,263.462,102.519,265.98,114.209z" clip-rule="evenodd" class="colorab4d40 svgShape"></path><path fill="#ffd95d" fill-rule="evenodd" d="M228.761,194.274l3.314,15.379
							c-24.211-21.881-49.843-28.769-64.646-30.919c-2.27-5.047-3.533-10.644-3.533-16.536c0-22.293,18.069-40.363,40.361-40.363
							c3.194,0,6.302,0.372,9.283,1.075c0.077,0.833,0.206,1.673,0.386,2.513l13.43,62.335L228.761,194.274z" clip-rule="evenodd" class="colorffd95d svgShape"></path><path fill="#e87c20" fill-rule="evenodd" d="M207.893 245.075c7.788 0 14.102 6.314 14.102 14.105 0 7.788-6.314 14.102-14.102 14.102-7.79 0-14.105-6.314-14.105-14.102C193.788 251.389 200.103 245.075 207.893 245.075zM207.893 368.431c7.788 0 14.102 6.315 14.102 14.102 0 7.79-6.314 14.105-14.102 14.105-7.79 0-14.105-6.314-14.105-14.105C193.788 374.746 200.103 368.431 207.893 368.431z" clip-rule="evenodd" class="colore87c20 svgShape"></path><path fill="#333333" fill-rule="evenodd" d="M291.45,431.059c-0.015,0-0.031,0-0.046,0l-100.284,0
						c-6.274,0-12.262-2.35-16.862-6.616c-4.6-4.267-7.392-10.062-7.863-16.317L149.091,178.22c-0.117-1.56,0.405-3.101,1.447-4.268
						c1.042-1.167,2.514-1.86,4.077-1.92c0.493-0.018,12.247-0.408,28.882,4.247c9.7,2.714,19.118,6.599,27.993,11.546
						c11.081,6.176,21.338,14.033,30.486,23.351c0.448,0.456,0.894,0.917,1.337,1.38c6.322-11.151,14.301-20.246,23.791-27.105
						c9.295-6.718,20.005-11.281,31.832-13.563c19.97-3.852,36.197,0.143,36.878,0.315c2.715,0.685,4.544,3.225,4.334,6.017
						l-17.305,229.906c-0.471,6.256-3.263,12.051-7.863,16.317c-4.6,4.266-10.588,6.616-16.862,6.616l-6.621,0
						C291.481,431.059,291.466,431.059,291.45,431.059L291.45,431.059z M297.511,419.539h0.606c6.905,0,12.719-5.393,13.237-12.278
						l16.915-224.727c-5.713-0.792-16.013-1.549-27.571,0.748c-21.912,4.354-38.475,17.302-49.278,38.509
						c14.352,17.778,25.528,39.839,33.305,65.78C295.624,323.921,299.92,368.295,297.511,419.539L297.511,419.539z M161.063,183.799
						l16.82,223.462c0.518,6.885,6.333,12.278,13.237,12.278h94.859c4.215-87.542-11.078-152.351-45.497-192.919
						c-0.17-0.175-0.327-0.36-0.472-0.554c-2.02-2.356-4.105-4.629-6.256-6.819C205.647,190.616,174.013,184.912,161.063,183.799z" clip-rule="evenodd" class="color333 svgShape"></path><path fill="#333333" fill-rule="evenodd" d="M334.406,183.548c-1.651,0-3.289-0.705-4.428-2.073
						c-2.036-2.444-1.706-6.076,0.738-8.112c11.747-9.788,17.107-19.1,15.931-27.677c-1.048-7.637-7.18-13.912-12.14-17.831
						c-5.72-4.52-11.111-6.963-11.164-6.987c-1.955-0.878-3.261-2.767-3.39-4.906c-0.486-8.03-3.105-13.699-8.004-17.332
						c-10.723-7.952-28.918-3.735-29.101-3.692c-2.073,0.494-4.26-0.193-5.669-1.792c-12.165-13.804-24.282-20.221-36.015-19.072
						c-19.767,1.936-33.011,24.32-33.142,24.546c-1.305,2.241-3.946,3.334-6.452,2.671c-10.136-2.683-18.415-2.024-24.608,1.959
						c-9.1,5.851-11.256,17.298-11.331,17.716c-0.293,1.895-1.502,3.469-3.239,4.283c-9.575,4.488-15.083,10.285-16.371,17.229
						c-1.386,7.474,2.116,15.494,5.299,20.905c3.648,6.203,7.628,10.372,7.668,10.413c2.204,2.293,2.132,5.94-0.161,8.144
						c-2.293,2.205-5.94,2.133-8.144-0.161c-0.81-0.843-19.796-20.876-15.989-41.403c1.871-10.089,8.686-18.254,20.27-24.303
						c1.448-5.207,5.514-15.854,15.642-22.433c8.114-5.27,18.131-6.757,29.822-4.436c5.342-7.612,19.412-24.617,39.614-26.595
						c14.842-1.452,29.483,5.43,43.557,20.471c7.063-1.111,23.394-2.431,35.164,6.26c6.952,5.134,11.105,12.715,12.374,22.565
						c7.195,3.892,24.558,14.963,26.924,32.214c1.752,12.776-4.966,25.592-19.97,38.093
						C337.013,183.11,335.706,183.548,334.406,183.548z" clip-rule="evenodd" class="color333 svgShape"></path><path fill="#333333" fill-rule="evenodd" d="M167.432 184.498c-2.198 0-4.297-1.265-5.257-3.399-2.68-5.961-4.039-12.32-4.039-18.901 0-25.431 20.69-46.121 46.121-46.121 3.584 0 7.153.413 10.606 1.228 3.096.73 5.014 3.832 4.283 6.929-.73 3.096-3.832 5.013-6.929 4.283-2.588-.611-5.266-.92-7.961-.92-19.079 0-34.601 15.522-34.601 34.601 0 4.941 1.018 9.71 3.026 14.177 1.305 2.901.01 6.311-2.891 7.616C169.024 184.335 168.221 184.498 167.432 184.498zM263.854 201.295c-1.12 0-2.252-.326-3.246-1.006-8.903-6.089-15.422-15.13-18.357-25.459-1.163-4.095-1.753-8.345-1.753-12.632 0-8.718 2.446-17.208 7.073-24.554 4.498-7.14 10.857-12.911 18.388-16.69 6.447-3.236 13.398-4.878 20.661-4.878 25.431 0 46.121 20.69 46.121 46.121 0 5.547-.975 10.971-2.898 16.122-1.113 2.98-4.431 4.494-7.411 3.381-2.98-1.113-4.494-4.43-3.381-7.411 1.44-3.857 2.171-7.926 2.171-12.092 0-19.079-15.522-34.601-34.601-34.601-5.451 0-10.664 1.229-15.493 3.654-11.787 5.914-19.108 17.772-19.108 30.948 0 3.223.442 6.414 1.315 9.484 2.2 7.743 7.094 14.526 13.779 19.098 2.626 1.796 3.299 5.38 1.503 8.006C267.498 200.418 265.692 201.295 263.854 201.295z" clip-rule="evenodd" class="color333 svgShape"></path><path fill="#333333" fill-rule="evenodd" d="M232.076 215.416c-2.812 0-5.153-2.014-5.659-4.679l-18.12-84.101c-.229-1.06-.395-2.136-.491-3.193-1.324-13.819 7.922-26.446 21.514-29.378l9.724-2.094c7.157-1.542 14.486-.205 20.637 3.766 6.152 3.971 10.389 10.1 11.931 17.258l2.562 11.894c.67 3.11-1.308 6.174-4.418 6.844-3.109.67-6.174-1.308-6.844-4.418l-2.562-11.894c-.894-4.15-3.35-7.703-6.917-10.005-3.566-2.301-7.815-3.077-11.964-2.183l-9.722 2.093c-7.883 1.7-13.245 9.021-12.472 17.03.001.011.002.022.003.032.054.595.148 1.207.28 1.817l18.149 84.235c.086.399.129.805.129 1.213C237.835 212.836 235.257 215.416 232.076 215.416zM207.893 279.042c-10.952 0-19.863-8.911-19.863-19.864 0-10.953 8.911-19.863 19.863-19.863 10.953 0 19.863 8.91 19.863 19.863C227.756 270.132 218.846 279.042 207.893 279.042L207.893 279.042zM207.893 250.835c-4.601 0-8.343 3.743-8.343 8.343 0 4.601 3.743 8.344 8.343 8.344s8.344-3.743 8.344-8.344C216.236 254.578 212.493 250.835 207.893 250.835zM276.822 274.197c-2.615 0-5.159-.502-7.562-1.491-2.942-1.211-4.345-4.577-3.134-7.519 1.211-2.941 4.577-4.345 7.519-3.134 1.006.414 2.075.624 3.177.624 4.6 0 8.341-3.742 8.341-8.341 0-4.601-3.742-8.344-8.341-8.344-3.646 0-6.93 2.432-7.986 5.915-.923 3.044-4.14 4.763-7.184 3.84-3.044-.923-4.764-4.139-3.84-7.184 1.211-3.994 3.721-7.581 7.067-10.101 3.465-2.61 7.595-3.99 11.943-3.99 10.952 0 19.861 8.911 19.861 19.864C296.683 265.288 287.773 274.197 276.822 274.197zM280.477 374.015c-10.953 0-19.864-8.911-19.864-19.864 0-10.953 8.911-19.864 19.864-19.864 4.904 0 9.613 1.801 13.259 5.073 2.368 2.124 2.566 5.765.442 8.134-2.124 2.368-5.765 2.566-8.133.442-1.53-1.372-3.507-2.128-5.567-2.128-4.601 0-8.344 3.743-8.344 8.344 0 4.601 3.743 8.344 8.344 8.344 2.561 0 4.945-1.153 6.541-3.163 1.978-2.492 5.601-2.908 8.092-.93 2.492 1.978 2.908 5.601.93 8.092C292.246 371.274 286.573 374.015 280.477 374.015zM207.893 402.399c-10.952 0-19.863-8.911-19.863-19.863 0-10.953 8.911-19.863 19.863-19.863 10.953 0 19.863 8.911 19.863 19.863C227.756 393.488 218.846 402.399 207.893 402.399L207.893 402.399zM207.893 374.192c-4.601 0-8.343 3.743-8.343 8.344 0 4.6 3.743 8.344 8.343 8.344s8.344-3.743 8.344-8.344C216.236 377.935 212.493 374.192 207.893 374.192zM251.262 296.867c0-3.659-2.984-6.643-6.643-6.643-3.659 0-6.643 2.984-6.643 6.643 0 3.659 2.984 6.643 6.643 6.643C248.278 303.51 251.262 300.526 251.262 296.867zM210.043 326.115c0-3.659-2.984-6.643-6.643-6.643-3.659 0-6.643 2.984-6.643 6.643 0 3.659 2.984 6.643 6.643 6.643C207.059 332.758 210.043 329.774 210.043 326.115zM264.55 393.74c0-3.659-2.984-6.643-6.643-6.643-3.659 0-6.643 2.984-6.643 6.643 0 3.659 2.984 6.643 6.643 6.643C261.566 400.384 264.55 397.399 264.55 393.74zM188.718 206.143c0-3.659-2.984-6.643-6.643-6.643-3.659 0-6.643 2.984-6.643 6.643 0 3.659 2.984 6.643 6.643 6.643C185.734 212.786 188.718 209.802 188.718 206.143zM309.156 209.658c0-3.659-2.984-6.643-6.643-6.643s-6.643 2.984-6.643 6.643c0 3.659 2.984 6.643 6.643 6.643S309.156 213.317 309.156 209.658zM309.156 293.384c0-3.659-2.984-6.643-6.643-6.643s-6.643 2.984-6.643 6.643 2.984 6.643 6.643 6.643S309.156 297.043 309.156 293.384z" clip-rule="evenodd" class="color333 svgShape"></path></svg></g></svg>